<?xml version="1.0" encoding="UTF-8"?>
<svg version="1.1" xmlns="http://www.w3.org/2000/svg" width="1080" height="240">
<path d="M0 0 C0 7.26 0 14.52 0 22 C64.35 22 128.7 22 195 22 C195 20.02 195 18.04 195 16 C205.91666043 13.87543255 216.93366115 12.97400361 228 12 C228 15.3 228 18.6 228 22 C243.18 22 258.36 22 274 22 C274.33 17.71 274.66 13.42 275 9 C288.53 9 302.06 9 316 9 C316.66 13.29 317.32 17.58 318 22 C320.64 22 323.28 22 326 22 C326.33 17.71 326.66 13.42 327 9 C340.53 9 354.06 9 368 9 C369 13 369 13 369 22 C398.7 22 428.4 22 459 22 C459 73.15 459 124.3 459 177 C264.96 177 70.92 177 -129 177 C-129 125.85 -129 74.7 -129 22 C-118.44 22 -107.88 22 -97 22 C-96.34 18.7 -95.68 15.4 -95 12 C-94.67 11.01 -94.34 10.02 -94 9 C-81.13 9 -68.26 9 -55 9 C-52 16 -52 16 -51 22 C-45.06 22 -39.12 22 -33 22 C-33 15.73 -33 9.46 -33 3 C-29.00067092 2.49406078 -25.00067713 1.99506707 -21 1.5 C-19.31197266 1.28537109 -19.31197266 1.28537109 -17.58984375 1.06640625 C-16.48769531 0.93105469 -15.38554687 0.79570313 -14.25 0.65625 C-12.74179687 0.46772461 -12.74179687 0.46772461 -11.203125 0.27539062 C-7.4813519 -0.04459109 -3.73550309 0 0 0 Z " fill="#030303" transform="translate(374,36)"/>
<path d="M0 0 C28.71 0 57.42 0 87 0 C87 49.17 87 98.34 87 149 C-105.06 149 -297.12 149 -495 149 C-495 100.16 -495 51.32 -495 1 C-485.76 1 -476.52 1 -467 1 C-467.99 4.3 -468.98 7.6 -470 11 C-475.61 11 -481.22 11 -487 11 C-486.98952637 12.8164502 -486.97905273 14.63290039 -486.96826172 16.50439453 C-486.93595537 22.51937271 -486.91300495 28.53432624 -486.89637566 34.54936409 C-486.88595757 38.19474274 -486.87183467 41.84002714 -486.84912109 45.48535156 C-486.82732196 49.00612179 -486.81541653 52.5268016 -486.81024551 56.04763412 C-486.80477522 58.03838841 -486.78917359 60.02910654 -486.77340698 62.01980591 C-486.77325592 63.24061859 -486.77310486 64.46143127 -486.77294922 65.71923828 C-486.768508 66.78957306 -486.76406677 67.85990784 -486.75949097 68.962677 C-487 72 -487 72 -489 78 C-477.45 78 -465.9 78 -454 78 C-453.34 72.72 -452.68 67.44 -452 62 C-446.39 62 -440.78 62 -435 62 C-435 64.31 -435 66.62 -435 69 C-440.28 69 -445.56 69 -451 69 C-451.309375 71.083125 -451.61875 73.16625 -451.9375 75.3125 C-452.43886503 78.68835789 -452.92042564 81.76127691 -454 85 C-464.89 85 -475.78 85 -487 85 C-487 93.58 -487 102.16 -487 111 C-300.55 111 -114.1 111 78 111 C78 78 78 45 78 11 C74.04 11 70.08 11 66 11 C62.88671875 9.7578125 62.88671875 9.7578125 60.6875 8.125 C51.73313754 2.09857193 42.79887539 2.15457715 32.375 3.6875 C26.90317501 4.77243082 21.03130651 6.96869349 17 11 C14.30345146 11.07319621 11.63308542 11.09242537 8.9375 11.0625 C7.79958008 11.05573242 7.79958008 11.05573242 6.63867188 11.04882812 C4.75908129 11.0370068 2.87953101 11.01907078 1 11 C-0.26086514 7.05979642 0 4.52419701 0 0 Z " fill="#F6F1E7" transform="translate(743,61)"/>
<path d="M0 0 C0.33 0 0.66 0 1 0 C1.20786201 12.82418216 0.67274176 25.51726505 -0.22680664 38.30932617 C-0.44038012 41.35355249 -0.64367476 44.39834707 -0.84570312 47.44335938 C-0.97857542 49.39587366 -1.1120173 51.34834928 -1.24609375 53.30078125 C-1.3065538 54.20282791 -1.36701385 55.10487457 -1.42930603 56.03425598 C-1.48929276 56.87671371 -1.54927948 57.71917145 -1.61108398 58.5871582 C-1.66215805 59.32118362 -1.71323212 60.05520905 -1.76585388 60.81147766 C-2.02449097 63.22891275 -2.52319632 65.61598158 -3 68 C6.9 68 16.8 68 27 68 C26.67 51.17 26.34 34.34 26 17 C28.62591423 22.25182847 29.31418455 27.43890426 30.28710938 33.19750977 C30.62123835 35.16534597 30.97069186 37.13056015 31.3203125 39.09570312 C31.64515625 40.98772461 31.64515625 40.98772461 31.9765625 42.91796875 C32.17330566 44.06031982 32.37004883 45.2026709 32.57275391 46.37963867 C33.06606642 50.55982798 33 54.79080294 33 59 C42.57 59 52.14 59 62 59 C62.3403125 55.349375 62.3403125 55.349375 62.6875 51.625 C64.21268925 36.34894323 66.70065165 21.17438518 69 6 C69.33 6 69.66 6 70 6 C69.67 26.46 69.34 46.92 69 68 C78.57 68 88.14 68 98 68 C98 61.73 98 55.46 98 49 C98.66 49 99.32 49 100 49 C100.15855469 49.6290625 100.31710937 50.258125 100.48046875 50.90625 C103.15483651 60.71719028 107.37911129 68.26202561 116 74 C124.62956313 78.52623444 132.35234062 79.86308718 142 79 C143.010625 78.91621094 144.02125 78.83242187 145.0625 78.74609375 C154.49520055 77.57928834 163.4840062 74.09997438 170 67 C168.36587557 65.29159719 167.13093906 64.06546953 165 63 C165.66 61.68 166.32 60.36 167 59 C166.45859375 58.27683594 166.45859375 58.27683594 165.90625 57.5390625 C165.4421875 56.90742187 164.978125 56.27578125 164.5 55.625 C164.0359375 54.99851563 163.571875 54.37203125 163.09375 53.7265625 C162 52 162 52 162 50 C165.63 49.67 169.26 49.34 173 49 C173 66.82 173 84.64 173 103 C-13.45 103 -199.9 103 -392 103 C-392 94.42 -392 85.84 -392 77 C-381.11 77 -370.22 77 -359 77 C-358.34 72.71 -357.68 68.42 -357 64 C-356.67 63.01 -356.34 62.02 -356 61 C-351.05 61 -346.1 61 -341 61 C-338 71.375 -338 71.375 -338 77 C-318.2 77 -298.4 77 -278 77 C-277.505 75.515 -277.505 75.515 -277 74 C-276.38253906 74.3609375 -275.76507813 74.721875 -275.12890625 75.09375 C-267.14475453 79.46862766 -261.64246001 80.07348695 -252.875 77.875 C-244.62887629 75.05831787 -241.00942619 70.64146219 -237.125 62.9375 C-235.19805681 58.95831912 -233.6465733 55.38509329 -233 51 C-232.34 51 -231.68 51 -231 51 C-230.67128906 52.051875 -230.67128906 52.051875 -230.3359375 53.125 C-227.16992653 62.59729297 -222.89731134 70.08971326 -214.015625 75.125 C-207.46287147 78.13008442 -201.03126045 78.42170111 -193.9375 78.5 C-193.01590088 78.51836914 -192.09430176 78.53673828 -191.14477539 78.55566406 C-181.03551973 78.46566802 -173.24677445 75.17547103 -165.97265625 68.18359375 C-159.322081 60.82186788 -157.68004156 52.60218878 -156 43 C-155.67 43 -155.34 43 -155 43 C-154.94392578 44.90072266 -154.94392578 44.90072266 -154.88671875 46.83984375 C-154.82100207 48.53908931 -154.75455677 50.2383068 -154.6875 51.9375 C-154.66494141 52.76830078 -154.64238281 53.59910156 -154.61914062 54.45507812 C-154.30978007 61.68286562 -153.28671426 68.31311074 -148.5 73.9375 C-143.89856757 77.73368175 -140.81789446 78.41727923 -135 78.4375 C-133.86510132 78.44330078 -133.86510132 78.44330078 -132.70727539 78.44921875 C-125.99587047 78.31226586 -120.76079632 76.48385091 -115 73 C-114.67 73.99 -114.34 74.98 -114 76 C-100.14 76.495 -100.14 76.495 -86 77 C-86 74.69 -86 72.38 -86 70 C-95.24 70 -104.48 70 -114 70 C-114 69.67 -114 69.34 -114 69 C-104.76 69 -95.52 69 -86 69 C-86 55.14 -86 41.28 -86 27 C-83.69 27 -81.38 27 -79 27 C-78.97812622 28.03386841 -78.97812622 28.03386841 -78.95581055 29.08862305 C-79.33623419 51.68185911 -79.33623419 51.68185911 -71 72 C-61.88786903 79.17697738 -51.18367852 79.19421675 -40 78 C-35.71969595 76.9712661 -31.83502001 75.14332456 -28 73 C-28.33 71.35 -28.66 69.7 -29 68 C-29.55042969 68.28875 -30.10085938 68.5775 -30.66796875 68.875 C-40.76398641 73.38298928 -53.72764381 74.15977168 -64.3671875 71 C-70.53831676 67.6987272 -74.35363304 62.40596577 -77 56 C-77.93381822 51.49862169 -78.11662725 47.22379375 -78.09765625 42.6328125 C-78.09553383 41.61343094 -78.09553383 41.61343094 -78.09336853 40.57345581 C-78.08781518 38.42392388 -78.07527169 36.27449992 -78.0625 34.125 C-78.05747896 32.65885568 -78.05291711 31.19270971 -78.04882812 29.7265625 C-78.03786111 26.15100717 -78.02062919 22.57551414 -78 19 C-79.98 19 -81.96 19 -84 19 C-84 18.67 -84 18.34 -84 18 C-81.69 18 -79.38 18 -77 18 C-76.9906543 18.88147705 -76.98130859 19.7629541 -76.97167969 20.67114258 C-76.92722179 23.99480605 -76.86541682 27.31726535 -76.79248047 30.64038086 C-76.76454759 32.06864986 -76.74319785 33.4970655 -76.72900391 34.92553711 C-76.62225133 45.07059022 -75.90433458 54.84232211 -69.875 63.4375 C-63.18638777 69.39908916 -55.97587638 70.61205568 -47.19140625 70.33203125 C-40.99595062 69.6874612 -35.50347836 67.87029483 -30 65 C-31.4297525 60.06085498 -33.59972055 55.70573538 -35.9765625 51.171875 C-37 49 -37 49 -37 47 C-37.556875 47.350625 -38.11375 47.70125 -38.6875 48.0625 C-41.6020668 49.24408113 -43.04965818 49.00932746 -46 48 C-48.32891212 44.50663182 -48.23551143 43.13992135 -48.1953125 39.01953125 C-48.18886719 37.85615234 -48.18242188 36.69277344 -48.17578125 35.49414062 C-48.15902344 34.27919922 -48.14226562 33.06425781 -48.125 31.8125 C-48.11597656 30.58595703 -48.10695313 29.35941406 -48.09765625 28.09570312 C-48.07406104 25.06371915 -48.03818967 22.03183527 -48 19 C-43.71 19 -39.42 19 -35 19 C-35 19.33 -35 19.66 -35 20 C-38.63 20 -42.26 20 -46 20 C-46 22.31 -46 24.62 -46 27 C-42.04 27 -38.08 27 -34 27 C-33.87625 25.80375 -33.7525 24.6075 -33.625 23.375 C-32.87224187 16.90128008 -31.92169078 10.45183544 -31 4 C-20.77 4 -10.54 4 0 4 C0 2.68 0 1.36 0 0 Z " fill="#040304" transform="translate(648,69)"/>
<path d="M0 0 C0.33 10.89 0.66 21.78 1 33 C2.65 31.68 4.3 30.36 6 29 C12.69448302 25.41891926 19.31972817 25.0860826 26.5625 27.0625 C32.67208937 29.29951718 36.45304072 33.4928591 39.8125 38.9375 C42.87671307 46.83994424 43.33759062 53.96462401 43.3125 62.375 C43.32861328 63.4475 43.34472656 64.52 43.36132812 65.625 C43.36843344 77.3061327 40.650658 86.05511934 33 95 C26.91894733 100.06754389 20.26985177 101.47819447 12.5 101.32421875 C6.99667221 100.61050593 2.74728634 97.99939735 -1 94 C-1.99 95.98 -1.99 95.98 -3 98 C-21.81 98 -40.62 98 -60 98 C-60.66 92.72 -61.32 87.44 -62 82 C-68.27 82 -74.54 82 -81 82 C-81.66 87.28 -82.32 92.56 -83 98 C-93.23 98 -103.46 98 -114 98 C-111.74986394 84.49918363 -111.74986394 84.49918363 -110.29174805 79.47558594 C-109.96768478 78.34691101 -109.64362152 77.21823608 -109.30973816 76.05535889 C-108.96389175 74.8769342 -108.61804535 73.69850952 -108.26171875 72.484375 C-107.717752 70.60241425 -107.717752 70.60241425 -107.16279602 68.68243408 C-106.39947654 66.04245502 -105.6318656 63.40378041 -104.8605957 60.76611328 C-103.88666123 57.43531408 -102.92000923 54.10246204 -101.95611382 50.76874542 C-93.44172547 21.32517642 -93.44172547 21.32517642 -89 8 C-77.12 8 -65.24 8 -53 8 C-44.75895378 36.27312782 -36.83271587 64.60640497 -29 93 C-28.67 62.97 -28.34 32.94 -28 2 C-13 0 -13 0 0 0 Z " fill="#FAF5EB" transform="translate(371,39)"/>
<path d="M0 0 C0 5.61 0 11.22 0 17 C4.95 17 9.9 17 15 17 C14.37574057 23.45068082 13.33978367 29.6583573 12 36 C8.04 36 4.08 36 0 36 C0.11356669 40.43806659 0.24032829 44.87506727 0.375 49.3125 C0.42140625 51.20645508 0.42140625 51.20645508 0.46875 53.13867188 C0.50742187 54.34716797 0.54609375 55.55566406 0.5859375 56.80078125 C0.6173584 57.91622314 0.6487793 59.03166504 0.68115234 60.1809082 C0.805249 63.20368786 0.805249 63.20368786 3 66 C5.64 65.67 8.28 65.34 11 65 C12.36645701 67.59836136 13.71830669 70.20265556 15.0625 72.8125 C15.45244141 73.55048828 15.84238281 74.28847656 16.24414062 75.04882812 C16.79038086 76.11713867 16.79038086 76.11713867 17.34765625 77.20703125 C17.68804932 77.8616333 18.02844238 78.51623535 18.37915039 79.19067383 C19 81 19 81 18 84 C16.109375 85.1328125 16.109375 85.1328125 13.75 86.125 C12.59757812 86.62386719 12.59757812 86.62386719 11.421875 87.1328125 C2.39152961 90.36625875 -8.12241 90.38522434 -16.84765625 86.3125 C-24.01668645 81.94082278 -27.05380459 74.93793825 -29 67 C-29.45569407 61.58767626 -29.38287591 56.23722172 -29.25 50.8125 C-29.22988384 49.36916569 -29.2116422 47.92580399 -29.1953125 46.48242188 C-29.1517684 42.9877007 -29.08303158 39.4940326 -29 36 C-30.32939761 37.09818605 -30.32939761 37.09818605 -30.0534668 39.83227539 C-29.91512883 44.85673042 -29.91512883 44.85673042 -29.75805664 49.88061523 C-29.68858406 52.02897663 -29.63379207 54.17736646 -29.58007812 56.32617188 C-29.27674574 66.74043185 -28.97293783 76.94688851 -21.25390625 84.76953125 C-12.99388659 91.05656939 -1.85141122 90.16436607 8 89 C11.92200011 88.05775357 15.42960245 86.87299544 19 85 C21 88 21 88 20.9296875 90.015625 C19.16839573 93.77502088 15.55654741 94.58234849 11.8671875 96.015625 C7.2517899 97.19045348 2.99562931 97.47963646 -1.75 97.5 C-2.54132324 97.50612305 -3.33264648 97.51224609 -4.14794922 97.51855469 C-10.72266873 97.37840393 -15.95860017 95.76825571 -21.6875 92.4375 C-30.95054302 82.67375195 -31.31711639 69.58423837 -31.125 56.875 C-31.11597656 55.72773437 -31.10695313 54.58046875 -31.09765625 53.3984375 C-31.07432538 50.59873252 -31.04159232 47.79948305 -31 45 C-33.31 45 -35.62 45 -38 45 C-38 61.5 -38 78 -38 95 C-44.868125 95.0928125 -44.868125 95.0928125 -51.875 95.1875 C-54.0403833 95.22846802 -54.0403833 95.22846802 -56.24951172 95.27026367 C-57.94744873 95.28150269 -57.94744873 95.28150269 -59.6796875 95.29296875 C-60.84226074 95.3086792 -62.00483398 95.32438965 -63.20263672 95.34057617 C-64.1257666 95.22818604 -65.04889648 95.1157959 -66 95 C-66.66 94.01 -67.32 93.02 -68 92 C-68.52464844 92.3609375 -69.04929687 92.721875 -69.58984375 93.09375 C-77.76354387 97.98980997 -85.76235486 98.13379548 -95 97 C-99.88066554 95.34270235 -101.99847398 92.36760948 -104.375 87.9375 C-106.69313059 82.84769153 -107.10782183 78.60673496 -107 73 C-105.99163689 74.98134506 -105.01849776 76.95695068 -104.140625 79 C-101.96920342 83.87617478 -99.93948021 86.5302599 -95 89 C-93.68 89 -92.36 89 -91 89 C-91.53109375 88.76925781 -92.0621875 88.53851563 -92.609375 88.30078125 C-97.16603362 86.19706842 -100.37038121 84.45012411 -103 80 C-105.25061797 73.03529069 -105.25996881 66.46433135 -105.1953125 59.1875 C-105.1924826 57.97803711 -105.18965271 56.76857422 -105.18673706 55.52246094 C-105.17559396 51.68153752 -105.15049983 47.84085225 -105.125 44 C-105.11496263 41.38672213 -105.1058381 38.77344059 -105.09765625 36.16015625 C-105.07738043 29.77327322 -105.03821949 23.38690138 -105 17 C-95.43 17 -85.86 17 -76 17 C-75.67 33.5 -75.34 50 -75 67 C-73.68 66.67 -72.36 66.34 -71 66 C-71 65.34 -71 64.68 -71 64 C-71 50 -71 36 -71 22 C-71.99 22 -72.98 22 -74 22 C-74 36.52 -74 51.04 -74 66 C-74.33 66 -74.66 66 -75 66 C-75 49.17 -75 32.34 -75 15 C-85.56 15 -96.12 15 -107 15 C-107 16.98 -107 18.96 -107 21 C-121.42525059 21.91170825 -121.42525059 21.91170825 -127.15625 17.2890625 C-132.79311917 13.34803109 -139.1533148 13.63391444 -145.75 13.625 C-146.6884375 13.60050781 -147.626875 13.57601562 -148.59375 13.55078125 C-156.01848635 13.52001577 -163.07129878 14.8228428 -168.98583984 19.60595703 C-172.68686342 22.16751395 -177.01266259 21.51195161 -181.375 21.5 C-182.30828125 21.52835938 -183.2415625 21.55671875 -184.203125 21.5859375 C-190.7539066 21.60449495 -193.34945707 20.55451402 -198 16 C-202.13786907 13.76514436 -206.1926988 13.61635678 -210.8125 13.625 C-211.87500977 13.62306641 -211.87500977 13.62306641 -212.95898438 13.62109375 C-218.68507335 13.73698516 -222.28544251 14.85696167 -227 18 C-227 15.69 -227 13.38 -227 11 C-162.32 11 -97.64 11 -31 11 C-31 12.98 -31 14.96 -31 17 C-30.34 17 -29.68 17 -29 17 C-29 12.38 -29 7.76 -29 3 C-8.4 0 -8.4 0 0 0 Z " fill="#F9F4EA" transform="translate(600,51)"/>
<path d="M0 0 C12.21 0 24.42 0 37 0 C40.02880694 17.63198326 42.63930197 35.26819742 45 53 C45.67788891 48.18466458 46.3531989 43.36897614 47.02636719 38.55297852 C47.2545415 36.92300222 47.48335739 35.29311557 47.71289062 33.66333008 C48.04736714 31.28751995 48.37934121 28.91136991 48.7109375 26.53515625 C48.85950699 25.48558495 48.85950699 25.48558495 49.01107788 24.41481018 C50.14001763 16.28866205 51.04064211 8.1545421 52 0 C64.21 0 76.42 0 89 0 C90.72412999 18.73032129 92.32177575 37.41752007 93.35302734 56.19702148 C93.76270214 63.89468483 93.76270214 63.89468483 94.5546875 71.55859375 C95.16812695 77.6768451 95 83.85107265 95 90 C85.43 90 75.86 90 66 90 C66 71.85 66 53.7 66 35 C64.06812248 48.64176313 64.06812248 48.64176313 62.14086914 62.28417969 C61.89746551 63.99676858 61.65390517 65.70933522 61.41015625 67.421875 C61.28572144 68.3082666 61.16128662 69.1946582 61.03308105 70.10791016 C60.9113855 70.9601416 60.78968994 71.81237305 60.66430664 72.69042969 C60.50775352 73.79629425 60.50775352 73.79629425 60.34803772 74.92449951 C60.0049714 76.97035335 59.50312041 78.98751838 59 81 C49.43 81 39.86 81 30 81 C28.125 68.1875 28.125 68.1875 27.54736328 64.21948242 C27.38993652 63.15060791 27.23250977 62.0817334 27.0703125 60.98046875 C26.91320801 59.90692139 26.75610352 58.83337402 26.59423828 57.72729492 C25.80944775 52.80478176 24.89168662 47.9042764 24 43 C24 58.51 24 74.02 24 90 C14.1 90 4.2 90 -6 90 C-4.62411135 59.94769529 -2.4035739 29.98633461 0 0 Z " fill="#F9F4EA" transform="translate(651,47)"/>
<path d="M0 0 C11.88 0 23.76 0 36 0 C41.11318504 17.54215789 46.20047293 35.08544841 51.07910156 52.69433594 C51.92575061 55.73347382 52.78163745 58.7698787 53.64118958 61.8053894 C54.39422662 64.46851756 55.14185988 67.13314644 55.88864136 69.79803467 C56.42547151 71.70722179 56.96864558 73.61462151 57.51196289 75.52197266 C57.83672607 76.68519043 58.16148926 77.8484082 58.49609375 79.046875 C58.78669678 80.07651367 59.0772998 81.10615234 59.37670898 82.16699219 C60 85 60 85 60 90 C49.77 90 39.54 90 29 90 C28.34 84.72 27.68 79.44 27 74 C20.73 74 14.46 74 8 74 C7.34 79.28 6.68 84.56 6 90 C-4.23 90 -14.46 90 -25 90 C-22.74986394 76.49918363 -22.74986394 76.49918363 -21.29174805 71.47558594 C-20.96768478 70.34691101 -20.64362152 69.21823608 -20.30973816 68.05535889 C-19.96389175 66.8769342 -19.61804535 65.69850952 -19.26171875 64.484375 C-18.717752 62.60241425 -18.717752 62.60241425 -18.16279602 60.68243408 C-17.39947654 58.04245502 -16.6318656 55.40378041 -15.8605957 52.76611328 C-14.88666123 49.43531408 -13.92000923 46.10246204 -12.95611382 42.76874542 C-4.44172547 13.32517642 -4.44172547 13.32517642 0 0 Z " fill="#F9F4EA" transform="translate(282,47)"/>
<path d="M0 0 C7.68588214 5.29191885 12.11370932 11.91521616 14.75 20.8125 C15.29194973 24.45885748 15.37163742 28.00546859 15.3125 31.6875 C15.30226807 32.65059082 15.29203613 33.61368164 15.28149414 34.60595703 C14.97421502 44.9246163 12.13238825 53.48049459 4.90234375 61.05859375 C-1.09678424 65.94717536 -8.46313597 69.53439771 -16.25 69.8125 C-17.62285156 69.86857422 -17.62285156 69.86857422 -19.0234375 69.92578125 C-30.88419208 70.20960283 -40.35646386 68.21927882 -49.296875 59.91015625 C-57.19966576 50.84221045 -58.98099341 39.06127354 -58.640625 27.3671875 C-57.47141476 16.72737435 -52.65266703 8.28957022 -44.5390625 1.421875 C-31.63672016 -7.6493964 -13.53742566 -7.69112859 0 0 Z " fill="#F9F4EA" transform="translate(475.25,70.1875)"/>
<path d="M0 0 C9.57 0 19.14 0 29 0 C29.33 16.5 29.66 33 30 50 C33.9714169 49.37158027 33.9714169 49.37158027 36 47 C36.33016506 44.90019956 36.33016506 44.90019956 36.31884766 42.45849609 C36.33871735 41.51767181 36.35858704 40.57684753 36.37905884 39.60751343 C36.39061005 38.58976837 36.40216125 37.57202332 36.4140625 36.5234375 C36.43342865 35.48305328 36.4527948 34.44266907 36.4727478 33.37075806 C36.53265727 30.0389228 36.57897452 26.70705321 36.625 23.375 C36.6631693 21.11977637 36.7022204 18.86456748 36.7421875 16.609375 C36.84003226 11.07299218 36.91951135 5.53677154 37 0 C46.24 0 55.48 0 65 0 C65 22.77 65 45.54 65 69 C56.75 69 48.5 69 40 69 C40 67.02 40 65.04 40 63 C39.52691406 63.39832031 39.05382812 63.79664063 38.56640625 64.20703125 C31.78598357 69.63929971 25.0226091 72.69077343 16.203125 72.3515625 C11.12474793 71.54118318 7.31745284 69.24811322 3.625 65.75 C-0.70601118 58.42059646 -0.26863202 50.43934381 -0.1953125 42.1875 C-0.1924826 40.97803711 -0.18965271 39.76857422 -0.18673706 38.52246094 C-0.17559396 34.68153752 -0.15049983 30.84085225 -0.125 27 C-0.11496263 24.38672213 -0.1058381 21.77344059 -0.09765625 19.16015625 C-0.07738043 12.77327322 -0.03821949 6.38690138 0 0 Z " fill="#FAF5EB" transform="translate(495,68)"/>
<path d="M0 0 C6.96695071 5.840248 10.93676152 12.29782735 13.1328125 21.08203125 C13.1328125 27.02203125 13.1328125 32.96203125 13.1328125 39.08203125 C-0.3971875 39.08203125 -13.9271875 39.08203125 -27.8671875 39.08203125 C-25.68658917 45.9302902 -25.68658917 45.9302902 -21.8671875 48.08203125 C-14.94494789 49.28866017 -9.88888118 47.58805929 -3.8984375 44.17578125 C-1.8671875 43.08203125 -1.8671875 43.08203125 0.1328125 43.08203125 C1.92365102 45.38369912 3.60540492 47.68442026 5.2578125 50.08203125 C5.72574219 50.74976563 6.19367187 51.4175 6.67578125 52.10546875 C7.83407486 53.76017391 8.98421015 55.42058432 10.1328125 57.08203125 C8.28677331 61.75667887 5.43362592 62.86328873 1.04296875 64.91015625 C-11.96175309 70.14695699 -24.55260504 70.55397593 -37.8671875 66.08203125 C-47.22484596 61.59203369 -52.35553169 54.32314181 -56.03588867 44.84667969 C-57.41722895 40.25275976 -57.44727324 35.84713265 -57.3671875 31.08203125 C-57.38265625 30.16164062 -57.398125 29.24125 -57.4140625 28.29296875 C-57.35344325 17.5330519 -53.60994378 9.9204167 -46.23046875 2.21484375 C-33.99824627 -8.8244843 -13.40838519 -8.96936939 0 0 Z " fill="#F9F4EB" transform="translate(805.8671875,70.91796875)"/>
<path d="M0 0 C13.53 0 27.06 0 41 0 C41.99 6.435 41.99 6.435 43 13 C45.64 13 48.28 13 51 13 C51.495 6.565 51.495 6.565 52 0 C65.53 0 79.06 0 93 0 C93.83908391 3.35633563 94.1836388 6.00785488 94.31640625 9.421875 C94.37924805 10.95908203 94.37924805 10.95908203 94.44335938 12.52734375 C94.48267578 13.59082031 94.52199219 14.65429688 94.5625 15.75 C94.60568359 16.82894531 94.64886719 17.90789063 94.69335938 19.01953125 C94.79928989 21.67956428 94.90136421 24.33968812 95 27 C107.87679038 26.92343279 107.87679038 26.92343279 119 21 C127.14132399 16.92933801 139.04242788 16.54926247 147.6875 19.1875 C150.74305365 20.31578748 153.16413527 21.744988 155.8125 23.625 C159.29234442 25.97770887 162.09407375 26.39310186 166.26171875 26.6484375 C167.87566528 26.75551025 167.87566528 26.75551025 169.5222168 26.86474609 C170.33988525 26.90937988 171.15755371 26.95401367 172 27 C172.02527002 33.53278786 172.04283292 40.06556321 172.05493164 46.59838867 C172.05997317 48.82267732 172.06680623 51.04696263 172.07543945 53.27124023 C172.08751298 56.46078309 172.09322996 59.65028229 172.09765625 62.83984375 C172.10281754 63.84087631 172.10797882 64.84190887 172.11329651 65.87327576 C172.11337204 66.79415482 172.11344757 67.71503387 172.11352539 68.66381836 C172.115746 69.47878281 172.11796661 70.29374725 172.12025452 71.13340759 C172 73 172 73 171 74 C169.22000726 74.33918428 167.4242363 74.59763057 165.625 74.8125 C164.64789062 74.94269531 163.67078125 75.07289062 162.6640625 75.20703125 C160 75 160 75 158.1484375 73.13671875 C157 71 157 71 157 69 C156.24976563 69.433125 155.49953125 69.86625 154.7265625 70.3125 C148.14605306 73.89282755 142.56908894 76.60808483 135 75 C131.9375 73.375 131.9375 73.375 130 71 C129.67 69.02 129.34 67.04 129 65 C142.53 65 156.06 65 170 65 C169.36759351 44.6197296 169.36759351 44.6197296 159.140625 28.875 C151.47689174 22.16224094 141.94224632 20.55012476 132.0234375 20.75 C122.61103203 21.52828676 114.24403643 25.28758629 107.75 32.1875 C101.96948012 39.63420072 100.28954927 47.61344688 100.4375 56.875 C100.44700684 57.83736572 100.45651367 58.79973145 100.46630859 59.79125977 C100.7545735 69.66141666 103.31878811 78.2713502 110.28515625 85.5390625 C118.86088833 92.84503926 129.17184001 94.48936862 140.17578125 94.25390625 C147.9673786 93.55341686 155.14978202 91.28534122 162.0625 87.671875 C164.51804019 86.82035703 165.64128174 86.9189208 168 88 C169.25 90.0625 169.25 90.0625 170 92 C161.20614794 98.79091396 152.29416189 103.48026866 141 104 C139.55173828 104.11214844 139.55173828 104.11214844 138.07421875 104.2265625 C127.12156239 104.72500674 118.07826666 101.94898452 109.5625 94.9375 C104.24162001 89.75550106 99.24773651 82.77218757 98.8515625 75.140625 C98.92503906 74.08101562 98.92503906 74.08101562 99 73 C98.34 73 97.68 73 97 73 C97 74.65 97 76.3 97 78 C96.67 78 96.34 78 96 78 C94.68541646 63.33852715 93.59285704 48.66414444 92.58047485 33.97912598 C92.44400362 32.00046538 92.30662037 30.02186746 92.16830444 28.04333496 C91.97121283 25.21658486 91.77799651 22.38959601 91.5859375 19.5625 C91.49701485 18.29481781 91.49701485 18.29481781 91.40629578 17.00152588 C91.35262344 16.1979364 91.29895111 15.39434692 91.24365234 14.56640625 C91.19639008 13.87490479 91.14912781 13.18340332 91.10043335 12.47094727 C90.95867759 8.98335065 91 5.4904763 91 2 C78.79 2 66.58 2 54 2 C53.67 7.61 53.34 13.22 53 19 C52.64665658 22.34403005 52.27463696 25.64770421 51.80859375 28.97265625 C51.69902847 29.79205185 51.5894632 30.61144745 51.47657776 31.45567322 C51.1360859 33.99211795 50.7870253 36.5272862 50.4375 39.0625 C50.20059296 40.81567708 49.96426206 42.56893211 49.72851562 44.32226562 C49.15894825 48.54910074 48.58171145 52.77481981 48 57 C45.13053578 54.13053578 45.24886671 50.93175923 44.78125 47.0625 C44.62613953 45.87043945 44.62613953 45.87043945 44.46789551 44.65429688 C44.13722743 42.10382118 43.81798835 39.552085 43.5 37 C43.07758541 33.66605613 42.64989647 30.33282535 42.21875 27 C42.11618896 26.19997559 42.01362793 25.39995117 41.90795898 24.57568359 C41.26851506 19.69756717 40.48673677 14.89668536 39.34960938 10.10546875 C39 8 39 8 39 2 C26.79 2 14.58 2 2 2 C2 5.63 2 9.26 2 13 C1.85995767 16.06842742 1.70331385 19.1240549 1.5 22.1875 C1.45230469 22.94869141 1.40460937 23.70988281 1.35546875 24.49414062 C1.2400297 26.32962149 1.12047924 28.16484308 1 30 C0.34 29.34 -0.32 28.68 -1 28 C-4.20813626 27.72082705 -4.20813626 27.72082705 -7.9765625 27.8046875 C-9.00443375 27.80893234 -9.00443375 27.80893234 -10.05307007 27.81326294 C-12.24389027 27.82446719 -14.43430316 27.84957141 -16.625 27.875 C-18.1093691 27.88502952 -19.5937446 27.89415542 -21.078125 27.90234375 C-24.71888261 27.92440706 -28.35940156 27.95893824 -32 28 C-32.08979126 29.4223999 -32.08979126 29.4223999 -32.18139648 30.87353516 C-32.30623413 32.74984619 -32.30623413 32.74984619 -32.43359375 34.6640625 C-32.51407959 35.9010791 -32.59456543 37.1380957 -32.67749023 38.41259766 C-33.06873184 42.76453113 -33.90742452 46.77537483 -35 51 C-38.96 51 -42.92 51 -47 51 C-46.95875 49.88625 -46.9175 48.7725 -46.875 47.625 C-46.58878141 43.95633975 -46.58878141 43.95633975 -49 42 C-45.04 42 -41.08 42 -37 42 C-36.86722656 41.13117188 -36.73445312 40.26234375 -36.59765625 39.3671875 C-36.42105469 38.21476562 -36.24445312 37.06234375 -36.0625 35.875 C-35.88847656 34.73804688 -35.71445312 33.60109375 -35.53515625 32.4296875 C-35.04418193 29.28315133 -34.52354678 26.1412807 -34 23 C-38.95 23 -43.9 23 -49 23 C-49 17.39 -49 11.78 -49 6 C-49.99 5.67 -50.98 5.34 -52 5 C-50.35 4.34 -48.7 3.68 -47 3 C-47 6.3 -47 9.6 -47 13 C-31.82 13 -16.64 13 -1 13 C-0.505 6.565 -0.505 6.565 0 0 Z " fill="#0B0A0A" transform="translate(649,45)"/>
<path d="M0 0 C0.99 0.99 0.99 0.99 2 2 C4.36509361 2.30059943 6.74441881 2.49515012 9.125 2.625 C10.40632812 2.69976562 11.68765625 2.77453125 13.0078125 2.8515625 C14.48894531 2.92503906 14.48894531 2.92503906 16 3 C16 1.02 16 -0.96 16 -3 C26.56 -3 37.12 -3 48 -3 C48.33 -0.69 48.66 1.62 49 4 C49.99 4 50.98 4 52 4 C52.14288264 9.78408689 52.28528698 15.56818529 52.42724609 21.35229492 C52.47561677 23.32039713 52.52411865 25.28849611 52.57275391 27.2565918 C52.64259704 30.08381326 52.71196989 32.91104594 52.78125 35.73828125 C52.81406067 37.06029289 52.81406067 37.06029289 52.84753418 38.40901184 C52.86755493 39.22963608 52.88757568 40.05026031 52.90820312 40.89575195 C52.92596802 41.61745071 52.94373291 42.33914948 52.96203613 43.0827179 C52.99448624 44.72153954 53 46.36085712 53 48 C52.34 48.66 51.68 49.32 51 50 C49.68 49.67 48.36 49.34 47 49 C47 32.5 47 16 47 -1 C37.43 -1 27.86 -1 18 -1 C18.07415449 6.66859759 18.15713219 14.33606253 18.26245117 22.00415039 C18.29561126 24.61020958 18.32367065 27.21633904 18.34643555 29.82250977 C18.38014489 33.5785911 18.43247112 37.33403355 18.48828125 41.08984375 C18.49786613 42.82475319 18.49786613 42.82475319 18.50764465 44.5947113 C18.65074318 52.55031254 19.24559631 59.59323754 24.375 65.9375 C28.63361237 69.28355258 32.46125845 70.23816326 37.8125 70.625 C38.78832031 70.69976562 39.76414062 70.77453125 40.76953125 70.8515625 C41.50558594 70.90054688 42.24164062 70.94953125 43 71 C43 71.33 43 71.66 43 72 C28.34161994 73.03066735 28.34161994 73.03066735 23.3125 69.6875 C17.69467001 64.54596429 15.79382789 56.34290796 15 49 C14.85304688 49.61746094 14.70609375 50.23492187 14.5546875 50.87109375 C11.84248265 61.11200515 6.70298744 68.86560904 -2 75 C-8.90310099 78.63733015 -15.2068251 79.65673482 -22.9375 79.5 C-24.38709106 79.47969727 -24.38709106 79.47969727 -25.8659668 79.45898438 C-36.62755815 79.1464485 -44.1906579 76.79310224 -52.0546875 69.2109375 C-56.87422412 63.73331154 -59.5353439 58.27961217 -60 51 C-60.66 51 -61.32 51 -62 51 C-62.04125 51.9075 -62.0825 52.815 -62.125 53.75 C-63.3836927 62.23324393 -68.06588521 70.4044294 -74.80078125 75.6640625 C-80.99962158 79.42961027 -88.79865213 81.36011966 -96 80 C-99.49328839 78.58896626 -102.74956437 76.90004588 -106 75 C-106.33 75.66 -106.66 76.32 -107 77 C-126.8 77 -146.6 77 -167 77 C-170 61 -170 61 -169 54 C-174.61 54 -180.22 54 -186 54 C-186.144375 56.083125 -186.28875 58.16625 -186.4375 60.3125 C-186.67892369 63.79589889 -186.89485234 66.68455701 -188 70 C-199.55 70 -211.1 70 -223 70 C-222.67 68.68 -222.34 67.36 -222 66 C-221.67 66.66 -221.34 67.32 -221 68 C-210.44 68 -199.88 68 -189 68 C-188.67 63.71 -188.34 59.42 -188 55 C-187.67 54.01 -187.34 53.02 -187 52 C-180.73 52 -174.46 52 -168 52 C-166.77731709 57.65490846 -166 62.15955528 -166 68 C-147.19 68 -128.38 68 -109 68 C-108.67 66.35 -108.34 64.7 -108 63 C-107.38511719 63.42152344 -106.77023437 63.84304687 -106.13671875 64.27734375 C-104.92435547 65.09912109 -104.92435547 65.09912109 -103.6875 65.9375 C-102.88699219 66.48277344 -102.08648437 67.02804688 -101.26171875 67.58984375 C-95.86925948 70.95198156 -89.59753838 70.77049641 -83.51953125 69.46875 C-75.00143879 66.84340827 -71.51289368 62.68215955 -67.33203125 54.94921875 C-63.93337705 47.42433921 -63.66325372 40.87789341 -63.6875 32.6875 C-63.67138672 31.61048828 -63.65527344 30.53347656 -63.63867188 29.42382812 C-63.6332036 20.3957054 -64.98720123 12.63855051 -70 5 C-70 4.34 -70 3.68 -70 3 C-69.37544922 2.99589111 -68.75089844 2.99178223 -68.10742188 2.98754883 C-65.23736392 2.95435515 -62.36935713 2.88368634 -59.5 2.8125 C-58.51773438 2.80669922 -57.53546875 2.80089844 -56.5234375 2.79492188 C-50.45810612 2.61296193 -46.6947433 1.72130749 -41.73388672 -1.78417969 C-31.08187409 -9.25348733 -10.47926199 -6.59953522 0 0 Z M-51.75 7.75 C-59.63944753 17.26056688 -61.03194874 28.0086404 -60 40 C-58.25559736 50.17217926 -54.96634636 58.42645966 -46.640625 64.80859375 C-36.50613898 71.37083082 -25.17397618 72.501356 -13.375 70.3125 C-2.93096059 67.56904762 3.7737841 62.6182112 9.5390625 53.58984375 C13.02007653 46.83200925 13.48321455 40.33782092 13.5625 32.875 C13.58461548 31.49803955 13.58461548 31.49803955 13.60717773 30.09326172 C13.44732208 19.40494863 9.70114964 11.7864926 2.359375 4.1328125 C-5.81125604 -3.25322152 -16.12367513 -4.44888834 -26.7890625 -4.25 C-36.70883076 -3.47765795 -44.9654238 0.50447595 -51.75 7.75 Z " fill="#302D2E" transform="translate(477,69)"/>
<path d="M0 0 C64.68 0 129.36 0 196 0 C196 1.98 196 3.96 196 6 C194.35 6 192.7 6 191 6 C191 12.6 191 19.2 191 26 C192.98 26 194.96 26 197 26 C197.01981934 26.8971875 197.03963867 27.794375 197.06005859 28.71875 C197.13864761 32.08114397 197.22535471 35.4431329 197.31738281 38.80517578 C197.35541616 40.25398848 197.39031137 41.70288739 197.421875 43.15185547 C197.58107079 59.78754662 197.58107079 59.78754662 205.74609375 73.76953125 C214.00611341 80.05656939 225.14858878 79.16436607 235 78 C238.92200011 77.05775357 242.42960245 75.87299544 246 74 C248 77 248 77 247.9296875 79.015625 C246.16839573 82.77502088 242.55654741 83.58234849 238.8671875 85.015625 C234.2517899 86.19045348 229.99562931 86.47963646 225.25 86.5 C224.45867676 86.50612305 223.66735352 86.51224609 222.85205078 86.51855469 C216.27733127 86.37840393 211.04139983 84.76825571 205.3125 81.4375 C196.04945698 71.67375195 195.68288361 58.58423837 195.875 45.875 C195.88402344 44.72773437 195.89304687 43.58046875 195.90234375 42.3984375 C195.92567462 39.59873252 195.95840768 36.79948305 196 34 C193.69 34 191.38 34 189 34 C189 50.5 189 67 189 84 C182.131875 84.0928125 182.131875 84.0928125 175.125 84.1875 C172.9596167 84.22846802 172.9596167 84.22846802 170.75048828 84.27026367 C169.05255127 84.28150269 169.05255127 84.28150269 167.3203125 84.29296875 C166.15773926 84.3086792 164.99516602 84.32438965 163.79736328 84.34057617 C162.8742334 84.22818604 161.95110352 84.1157959 161 84 C160.34 83.01 159.68 82.02 159 81 C158.47535156 81.3609375 157.95070313 81.721875 157.41015625 82.09375 C149.23645613 86.98980997 141.23764514 87.13379548 132 86 C127.11933446 84.34270235 125.00152602 81.36760948 122.625 76.9375 C120.30686941 71.84769153 119.89217817 67.60673496 120 62 C121.00836311 63.98134506 121.98150224 65.95695068 122.859375 68 C125.03592892 72.88770003 126.87695913 75.84293016 132 78 C137.93565522 78.57656427 143.73020134 79.11750194 149 76 C149.67160156 75.68160156 150.34320312 75.36320312 151.03515625 75.03515625 C151.70417969 74.71417969 152.37320313 74.39320313 153.0625 74.0625 C153.73410156 73.74410156 154.40570312 73.42570312 155.09765625 73.09765625 C157.07353849 72.06803663 157.07353849 72.06803663 158.62109375 70.37109375 C160 69 160 69 162 69 C162 70.98 162 72.96 162 75 C170.25 75 178.5 75 187 75 C187 52.23 187 29.46 187 6 C177.76 6 168.52 6 159 6 C159 21.51 159 37.02 159 53 C158.01 53 157.02 53 156 53 C156 39.14 156 25.28 156 11 C155.01 11 154.02 11 153 11 C153 25.52 153 40.04 153 55 C152.67 55 152.34 55 152 55 C152 38.17 152 21.34 152 4 C141.44 4 130.88 4 120 4 C120 5.98 120 7.96 120 10 C105.57474941 10.91170825 105.57474941 10.91170825 99.84375 6.2890625 C94.20688083 2.34803109 87.8466852 2.63391444 81.25 2.625 C80.3115625 2.60050781 79.373125 2.57601562 78.40625 2.55078125 C70.98151365 2.52001577 63.92870122 3.8228428 58.01416016 8.60595703 C54.31313658 11.16751395 49.98733741 10.51195161 45.625 10.5 C44.69171875 10.52835938 43.7584375 10.55671875 42.796875 10.5859375 C36.2460934 10.60449495 33.65054293 9.55451402 29 5 C24.86213093 2.76514436 20.8073012 2.61635678 16.1875 2.625 C15.12499023 2.62306641 15.12499023 2.62306641 14.04101562 2.62109375 C8.31492665 2.73698516 4.71455749 3.85696167 0 7 C0 4.69 0 2.38 0 0 Z " fill="#2A2229" transform="translate(373,62)"/>
<path d="M0 0 C0 7.26 0 14.52 0 22 C64.35 22 128.7 22 195 22 C195 20.02 195 18.04 195 16 C205.43533198 14.18132116 215.39562693 12.80075291 226 13 C218.1543491 18.23043393 206.10308874 17.45381468 197 18 C197 22.62 197 27.24 197 32 C196.34 32 195.68 32 195 32 C195 30.02 195 28.04 195 26 C130.32 26 65.64 26 -1 26 C-0.505 28.97 -0.505 28.97 0 32 C0.825 31.34 1.65 30.68 2.5 30 C8.60982239 26.50153319 16.22657689 27.31024205 23 28 C27.78165931 29.35043981 31.47659846 31.5840473 34 36 C31 36 31 36 28.75 34.125 C24.12398467 30.55035179 19.00143173 29.52835066 13.18359375 29.67578125 C7.04188682 30.58769838 1.90496049 33.32127963 -3 37 C-3 25.78 -3 14.56 -3 3 C-12.24 3.66 -21.48 4.32 -31 5 C-31 36.35 -31 67.7 -31 100 C-32.8339668 96.33206639 -33.86797222 93.17586812 -34.91796875 89.234375 C-35.09585434 88.57277878 -35.27373993 87.91118256 -35.45701599 87.22953796 C-35.83865529 85.80940368 -36.21850782 84.38878824 -36.59674072 82.96774292 C-37.59733968 79.21143924 -38.61307218 75.45923866 -39.62890625 71.70703125 C-39.83163147 70.95748672 -40.03435669 70.2079422 -40.2432251 69.4356842 C-41.9666323 63.08210907 -43.76842409 56.75349843 -45.625 50.4375 C-45.90053711 49.49986816 -46.17607422 48.56223633 -46.45996094 47.59619141 C-47.30456626 44.73017722 -48.15209955 41.86504091 -49 39 C-50.31635054 34.54279113 -51.62790766 30.08419848 -52.9375 25.625 C-53.24445801 24.58915771 -53.55141602 23.55331543 -53.86767578 22.48608398 C-54.14724121 21.53419189 -54.42680664 20.5822998 -54.71484375 19.6015625 C-54.96355225 18.75932129 -55.21226074 17.91708008 -55.46850586 17.04931641 C-56 15 -56 15 -56 13 C-55.01 13 -54.02 13 -53 13 C-52.34 15.97 -51.68 18.94 -51 22 C-45.06 22 -39.12 22 -33 22 C-33 15.73 -33 9.46 -33 3 C-29.00067092 2.49406078 -25.00067713 1.99506707 -21 1.5 C-19.31197266 1.28537109 -19.31197266 1.28537109 -17.58984375 1.06640625 C-16.48769531 0.93105469 -15.38554687 0.79570313 -14.25 0.65625 C-13.24453125 0.53056641 -12.2390625 0.40488281 -11.203125 0.27539062 C-7.4813519 -0.04459109 -3.73550309 0 0 0 Z " fill="#5F575B" transform="translate(374,36)"/>
<path d="M0 0 C13.53 0 27.06 0 41 0 C41.99 6.435 41.99 6.435 43 13 C45.64 13 48.28 13 51 13 C51.495 6.565 51.495 6.565 52 0 C65.53 0 79.06 0 93 0 C93.83908391 3.35633563 94.1836388 6.00785488 94.31640625 9.421875 C94.37924805 10.95908203 94.37924805 10.95908203 94.44335938 12.52734375 C94.48267578 13.59082031 94.52199219 14.65429688 94.5625 15.75 C94.60568359 16.82894531 94.64886719 17.90789063 94.69335938 19.01953125 C94.79928901 21.67954211 94.90013456 24.33975456 95 27 C99.95 27 104.9 27 110 27 C110 27.33 110 27.66 110 28 C105.05 28 100.1 28 95 28 C94.67 30.64 94.34 33.28 94 36 C93.67 36 93.34 36 93 36 C92.6615135 31.83373537 92.33014248 27.66693347 92 23.5 C91.85691406 21.74042969 91.85691406 21.74042969 91.7109375 19.9453125 C91.57558594 18.22441406 91.57558594 18.22441406 91.4375 16.46875 C91.35371094 15.42138672 91.26992188 14.37402344 91.18359375 13.29492188 C90.97410584 9.53528241 91 5.7654713 91 2 C78.79 2 66.58 2 54 2 C53.67 7.61 53.34 13.22 53 19 C52.64665658 22.34403005 52.27463696 25.64770421 51.80859375 28.97265625 C51.69902847 29.79205185 51.5894632 30.61144745 51.47657776 31.45567322 C51.1360859 33.99211795 50.7870253 36.5272862 50.4375 39.0625 C50.20059296 40.81567708 49.96426206 42.56893211 49.72851562 44.32226562 C49.15894825 48.54910074 48.58171145 52.77481981 48 57 C45.13053578 54.13053578 45.24886671 50.93175923 44.78125 47.0625 C44.62613953 45.87043945 44.62613953 45.87043945 44.46789551 44.65429688 C44.13722743 42.10382118 43.81798835 39.552085 43.5 37 C43.07758541 33.66605613 42.64989647 30.33282535 42.21875 27 C42.11618896 26.19997559 42.01362793 25.39995117 41.90795898 24.57568359 C41.26851506 19.69756717 40.48673677 14.89668536 39.34960938 10.10546875 C39 8 39 8 39 2 C26.79 2 14.58 2 2 2 C2 5.63 2 9.26 2 13 C1.85995767 16.06842742 1.70331385 19.1240549 1.5 22.1875 C1.45230469 22.94869141 1.40460937 23.70988281 1.35546875 24.49414062 C1.2400297 26.32962149 1.12047924 28.16484308 1 30 C0.34 29.34 -0.32 28.68 -1 28 C-4.20813626 27.72082705 -4.20813626 27.72082705 -7.9765625 27.8046875 C-9.00443375 27.80893234 -9.00443375 27.80893234 -10.05307007 27.81326294 C-12.24389027 27.82446719 -14.43430316 27.84957141 -16.625 27.875 C-18.1093691 27.88502952 -19.5937446 27.89415542 -21.078125 27.90234375 C-24.71888261 27.92440706 -28.35940156 27.95893824 -32 28 C-32.08979126 29.4223999 -32.08979126 29.4223999 -32.18139648 30.87353516 C-32.30623413 32.74984619 -32.30623413 32.74984619 -32.43359375 34.6640625 C-32.51407959 35.9010791 -32.59456543 37.1380957 -32.67749023 38.41259766 C-33.06873184 42.76453113 -33.90742452 46.77537483 -35 51 C-38.96 51 -42.92 51 -47 51 C-46.95875 49.88625 -46.9175 48.7725 -46.875 47.625 C-46.58878141 43.95633975 -46.58878141 43.95633975 -49 42 C-45.04 42 -41.08 42 -37 42 C-36.86722656 41.13117188 -36.73445312 40.26234375 -36.59765625 39.3671875 C-36.42105469 38.21476562 -36.24445312 37.06234375 -36.0625 35.875 C-35.88847656 34.73804688 -35.71445312 33.60109375 -35.53515625 32.4296875 C-35.04418193 29.28315133 -34.52354678 26.1412807 -34 23 C-38.95 23 -43.9 23 -49 23 C-49 17.39 -49 11.78 -49 6 C-49.99 5.67 -50.98 5.34 -52 5 C-50.35 4.34 -48.7 3.68 -47 3 C-47 6.3 -47 9.6 -47 13 C-31.82 13 -16.64 13 -1 13 C-0.505 6.565 -0.505 6.565 0 0 Z " fill="#1B1A1A" transform="translate(649,45)"/>
<path d="M0 0 C0.33 0 0.66 0 1 0 C0.45823514 12.73147429 -3.58975595 21.29153686 -13 30 C-23.24603791 37.67415795 -35.83307379 36.89208557 -48 36 C-57.17940844 34.4131876 -64.22754823 29.25255247 -69.6328125 21.7265625 C-72.34702648 17.18219281 -73.66343784 13.27280716 -74 8 C-74.66 8 -75.32 8 -76 8 C-76.04125 8.9075 -76.0825 9.815 -76.125 10.75 C-77.3836927 19.23324393 -82.06588521 27.4044294 -88.80078125 32.6640625 C-94.99962158 36.42961027 -102.79865213 38.36011966 -110 37 C-113.49328839 35.58896626 -116.74956437 33.90004588 -120 32 C-120.495 32.99 -120.495 32.99 -121 34 C-140.8 34 -160.6 34 -181 34 C-183.25 23.875 -183.25 23.875 -183 19 C-182.67 19 -182.34 19 -182 19 C-181.67 21.64 -181.34 24.28 -181 27 C-161.2 27 -141.4 27 -121 27 C-120.505 25.515 -120.505 25.515 -120 24 C-119.38253906 24.3609375 -118.76507813 24.721875 -118.12890625 25.09375 C-110.18238586 29.44800775 -104.67673553 30.05893275 -95.9375 27.9375 C-88.79193772 25.57046304 -83.24853431 20.67298012 -79.80859375 13.9765625 C-78.21624731 10.0841601 -77.07838107 6.0602681 -76 2 C-75.34 2 -74.68 2 -74 2 C-73.70867187 2.78503906 -73.41734375 3.57007812 -73.1171875 4.37890625 C-69.26482861 14.2520902 -65.04023216 21.28784312 -55.11328125 25.87109375 C-43.13244624 30.49954942 -29.50693026 30.08162534 -17.8125 24.9375 C-8.79476299 20.03437431 -4.0579351 12.57116411 -1 3 C-0.67 2.01 -0.34 1.02 0 0 Z " fill="#D11AF4" transform="translate(491,112)"/>
<path d="M0 0 C0.33 0 0.66 0 1 0 C0.67 20.46 0.34 40.92 0 62 C10.23 62.33 20.46 62.66 31 63 C31 65.64 31 68.28 31 71 C20.11 71 9.22 71 -2 71 C-2.33 64.4 -2.66 57.8 -3 51 C-3.66 54.63 -4.32 58.26 -5 62 C-15.56 62 -26.12 62 -37 62 C-37.66 59.36 -38.32 56.72 -39 54 C-39.33 59.61 -39.66 65.22 -40 71 C-51.22 71 -62.44 71 -74 71 C-74 64 -74 64 -73 63 C-70.6243148 62.9116033 -68.27791326 62.88469695 -65.90234375 62.90234375 C-64.83905602 62.90446617 -64.83905602 62.90446617 -63.75428772 62.90663147 C-61.48198288 62.91224557 -59.20977525 62.92480037 -56.9375 62.9375 C-55.40039204 62.94251319 -53.86328255 62.94707641 -52.32617188 62.95117188 C-48.55074358 62.96221958 -44.77538829 62.97949359 -41 63 C-41.54747378 45.66039638 -42.15340885 28.32809967 -43 11 C-40.13222119 15.987011 -39.65874185 21.59914913 -38.71289062 27.19750977 C-38.37876165 29.16534597 -38.02930814 31.13056015 -37.6796875 33.09570312 C-37.463125 34.35705078 -37.2465625 35.61839844 -37.0234375 36.91796875 C-36.82669434 38.06031982 -36.62995117 39.2026709 -36.42724609 40.37963867 C-35.93393358 44.55982798 -36 48.79080294 -36 53 C-26.43 53 -16.86 53 -7 53 C-6.773125 50.56625 -6.54625 48.1325 -6.3125 45.625 C-4.78731075 30.34894323 -2.29934835 15.17438518 0 0 Z " fill="#222020" transform="translate(717,75)"/>
<path d="M0 0 C64.68 0 129.36 0 196 0 C196 1.32 196 2.64 196 4 C183.13 4 170.26 4 157 4 C157 5.98 157 7.96 157 10 C155.35 10 153.7 10 152 10 C152 8.02 152 6.04 152 4 C141.44 4 130.88 4 120 4 C120 5.98 120 7.96 120 10 C105.57474941 10.91170825 105.57474941 10.91170825 99.84375 6.2890625 C94.20688083 2.34803109 87.8466852 2.63391444 81.25 2.625 C80.3115625 2.60050781 79.373125 2.57601562 78.40625 2.55078125 C70.98151365 2.52001577 63.92870122 3.8228428 58.01416016 8.60595703 C54.31313658 11.16751395 49.98733741 10.51195161 45.625 10.5 C44.69171875 10.52835938 43.7584375 10.55671875 42.796875 10.5859375 C36.2460934 10.60449495 33.65054293 9.55451402 29 5 C24.86213093 2.76514436 20.8073012 2.61635678 16.1875 2.625 C15.12499023 2.62306641 15.12499023 2.62306641 14.04101562 2.62109375 C8.31492665 2.73698516 4.71455749 3.85696167 0 7 C0 4.69 0 2.38 0 0 Z " fill="#F9F4EA" transform="translate(373,62)"/>
<path d="M0 0 C-7.8456509 5.23043393 -19.89691126 4.45381468 -29 5 C-29 9.62 -29 14.24 -29 19 C-29.66 19 -30.32 19 -31 19 C-30.67 16.69 -30.34 14.38 -30 12 C-94.68 12 -159.36 12 -226 12 C-226 11.01 -226 10.02 -226 9 C-161.65 9 -97.3 9 -31 9 C-31 7.02 -31 5.04 -31 3 C-20.56466802 1.18132116 -10.60437307 -0.19924709 0 0 Z " fill="#000000" transform="translate(600,49)"/>
<path d="M0 0 C2 3 2 3 1.57061768 5.69865417 C1.09335236 7.33124931 1.09335236 7.33124931 0.60644531 8.99682617 C0.07534149 10.84971504 0.07534149 10.84971504 -0.4664917 12.74003601 C-0.86805734 14.09108161 -1.26985771 15.44205747 -1.671875 16.79296875 C-2.07469859 18.18164638 -2.47631307 19.57067528 -2.87677002 20.96003723 C-3.9363941 24.62482319 -5.01154172 28.28487275 -6.09020996 31.9440918 C-7.39064957 36.36582707 -8.67314794 40.79278975 -9.95817947 45.2190218 C-10.96017312 48.66910309 -11.96478213 52.11834627 -12.97772217 55.56523132 C-14.77176137 61.68607821 -16.52241605 67.79463666 -18 74 C-20.10428779 70.55850407 -20.21780163 67.94159907 -20.13525391 63.94628906 C-20.11508209 62.72532532 -20.09491028 61.50436157 -20.0741272 60.24639893 C-20.04193085 58.93274353 -20.0097345 57.61908813 -19.9765625 56.265625 C-19.95038185 54.90372391 -19.92511592 53.54180495 -19.90072632 52.17987061 C-19.83420743 48.60236938 -19.75528675 45.02524573 -19.67376709 41.44805908 C-19.59271756 37.79494677 -19.52341816 34.14161356 -19.453125 30.48828125 C-19.31357211 23.325244 -19.15982912 16.16261877 -19 9 C-13.39 9 -7.78 9 -2 9 C-1.34 6.03 -0.68 3.06 0 0 Z " fill="#0A0A0A" transform="translate(275,63)"/>
<path d="M0 0 C0.33 0 0.66 0 1 0 C1 19.8 1 39.6 1 60 C-1 59 -1 59 -1.86621094 56.46582031 C-2.15270508 55.34788086 -2.43919922 54.22994141 -2.734375 53.078125 C-3.05857422 51.83409912 -3.38277344 50.59007324 -3.71679688 49.30834961 C-4.06131148 47.95559532 -4.40571022 46.60281152 -4.75 45.25 C-5.45985084 42.50554615 -6.17507568 39.76250411 -6.890625 37.01953125 C-7.06835449 36.3352858 -7.24608398 35.65104034 -7.42919922 34.94606018 C-9.2288325 28.04960983 -11.20744895 21.20733046 -13.27246094 14.38574219 C-13.61712402 13.21833496 -13.61712402 13.21833496 -13.96875 12.02734375 C-14.16919922 11.36468506 -14.36964844 10.70202637 -14.57617188 10.01928711 C-15 8 -15 8 -15 3 C-10.05 3 -5.1 3 0 3 C0 2.01 0 1.02 0 0 Z " fill="#030303" transform="translate(341,70)"/>
<path d="M0 0 C1.95082515 3.7455843 3.41591037 7.61472552 4.90234375 11.5625 C6.00677102 14.01503599 7.385127 15.86523911 9 18 C9 18.66 9 19.32 9 20 C9.56074219 20.268125 10.12148438 20.53625 10.69921875 20.8125 C13.16348523 22.08437947 15.46642405 23.52215688 17.8125 25 C28.54276693 31.39449047 39.9316458 31.0263247 52 28.84375 C56.49423624 27.57974606 60.43442511 25.5012089 64.50390625 23.2421875 C67 22 67 22 70 22 C70.99 23.98 70.99 23.98 72 26 C63.20614794 32.79091396 54.29416189 37.48026866 43 38 C42.03449219 38.07476562 41.06898438 38.14953125 40.07421875 38.2265625 C29.12156239 38.72500674 20.07826666 35.94898452 11.5625 28.9375 C4.42799855 22.0005336 0.10098518 13.16009574 -0.0625 3.1875 C-0.041875 2.135625 -0.02125 1.08375 0 0 Z " fill="#CF1AF1" transform="translate(747,111)"/>
<path d="M0 0 C1.00836311 1.98134506 1.98150224 3.95695068 2.859375 6 C3.15328125 6.66 3.4471875 7.32 3.75 8 C4.17539062 8.99 4.17539062 8.99 4.609375 10 C6.67365864 12.96885738 8.80834649 14.30986599 12 16 C14.9004422 16.4193062 17.30362799 16.61956144 20.1875 16.5625 C20.93056396 16.55734375 21.67362793 16.5521875 22.43920898 16.546875 C29.05021078 16.32939372 34.3299119 14.42899496 40 11 C40.495 12.98 40.495 12.98 41 15 C50.24 15 59.48 15 69 15 C69 17.31 69 19.62 69 22 C65.04907941 22.07409401 61.09842706 22.12857406 57.14697266 22.16479492 C55.14080626 22.18732251 53.13483474 22.2254357 51.12890625 22.26367188 C49.87207031 22.27333984 48.61523438 22.28300781 47.3203125 22.29296875 C45.57645264 22.31653442 45.57645264 22.31653442 43.79736328 22.34057617 C42.8742334 22.22818604 41.95110352 22.1157959 41 22 C40.34 21.01 39.68 20.02 39 19 C38.47535156 19.3609375 37.95070313 19.721875 37.41015625 20.09375 C29.23645613 24.98980997 21.23764514 25.13379548 12 24 C7.11933446 22.34270235 5.00152602 19.36760948 2.625 14.9375 C0.30686941 9.84769153 -0.10782183 5.60673496 0 0 Z " fill="#CF1AF2" transform="translate(493,124)"/>
<path d="M0 0 C0.33 0 0.66 0 1 0 C0.67 20.46 0.34 40.92 0 62 C10.23 62.33 20.46 62.66 31 63 C31 65.64 31 68.28 31 71 C20.11 71 9.22 71 -2 71 C-2.33 64.4 -2.66 57.8 -3 51 C-3.33 52.32 -3.66 53.64 -4 55 C-4.66 55 -5.32 55 -6 55 C-7.52733658 49.05888207 -6.47179112 43.64919804 -5.56640625 37.6953125 C-5.40961899 36.61619598 -5.25283173 35.53707947 -5.09129333 34.42526245 C-4.59024936 30.99052302 -4.07655685 27.55781351 -3.5625 24.125 C-3.21986634 21.7917894 -2.87805994 19.45845715 -2.53710938 17.125 C-1.70098834 11.41522215 -0.85448424 5.707057 0 0 Z " fill="#2D0833" transform="translate(717,75)"/>
<path d="M0 0 C3.23801443 1.57525026 3.83788439 2.80503209 5.3125 6.125 C5.77849348 9.77634615 5.77659119 13.38566335 5.75 17.0625 C5.76998047 18.03896484 5.78996094 19.01542969 5.81054688 20.02148438 C5.8065172 25.96525325 5.45278748 29.70476426 1.3125 34.125 C-2.13719657 34.66968893 -4.42171321 35.00655303 -7.37084961 32.95263672 C-10.26928833 28.92932645 -9.24226818 23.01795593 -9.25 18.25 C-9.28673828 17.06535156 -9.32347656 15.88070312 -9.36132812 14.66015625 C-9.40422384 6.20493494 -9.40422384 6.20493494 -7.40649414 3.19482422 C-5.00211076 1.09945424 -3.19574637 0.14863937 0 0 Z " fill="#040104" transform="translate(379.6875,84.875)"/>
<path d="M0 0 C9.31076517 -0.02328589 18.62152014 -0.04099725 27.9323082 -0.05181217 C32.25680325 -0.05700572 36.58127822 -0.06403842 40.90576172 -0.07543945 C45.08790532 -0.08639481 49.27002973 -0.09230333 53.45218658 -0.09487724 C55.03877311 -0.0967089 56.62535871 -0.10028505 58.21193695 -0.10573006 C67.18751066 -0.13527682 76.06282594 0.04849507 85 1 C85 1.33 85 1.66 85 2 C84.03320312 2.02578125 83.06640625 2.0515625 82.0703125 2.078125 C69.28724715 2.62359365 69.28724715 2.62359365 58.17016602 8.54150391 C54.34090972 11.11501916 50.10911681 10.51228525 45.625 10.5 C44.69171875 10.52835938 43.7584375 10.55671875 42.796875 10.5859375 C36.2460934 10.60449495 33.65054293 9.55451402 29 5 C24.86213093 2.76514436 20.8073012 2.61635678 16.1875 2.625 C15.12499023 2.62306641 15.12499023 2.62306641 14.04101562 2.62109375 C8.31492665 2.73698516 4.71455749 3.85696167 0 7 C0 4.69 0 2.38 0 0 Z " fill="#F6F1E7" transform="translate(373,62)"/>
<path d="M0 0 C3.2018661 5.64460432 3.48975171 10.66404092 3.4375 17.0625 C3.45748047 17.93455078 3.47746094 18.80660156 3.49804688 19.70507812 C3.49375374 25.37631507 2.89374657 28.76167409 -1 33 C-4.75 33.375 -4.75 33.375 -8 33 C-11.58489632 27.39504305 -11.45135929 22.36440655 -11.375 15.9375 C-11.38660156 14.95716797 -11.39820313 13.97683594 -11.41015625 12.96679688 C-11.37345909 3.95764347 -11.37345909 3.95764347 -8 0 C-4.9374046 -1.5312977 -3.21273912 -1.04905767 0 0 Z " fill="#040104" transform="translate(458,86)"/>
<path d="M0 0 C0.99 1.485 0.99 1.485 2 3 C-0.53146303 11.78566579 -5.07293778 20.05905442 -13 25 C-18.9362306 27.60879123 -25.54389339 29.21936584 -32 28 C-35.49328839 26.58896626 -38.74956437 24.90004588 -42 23 C-42.33 23.66 -42.66 24.32 -43 25 C-62.8 25 -82.6 25 -103 25 C-103.66 22.69 -104.32 20.38 -105 18 C-105.495 17.01 -105.495 17.01 -106 16 C-105.67 13.69 -105.34 11.38 -105 9 C-110.61 9 -116.22 9 -122 9 C-122.144375 11.083125 -122.28875 13.16625 -122.4375 15.3125 C-122.67892369 18.79589889 -122.89485234 21.68455701 -124 25 C-135.55 25 -147.1 25 -159 25 C-158.67 23.68 -158.34 22.36 -158 21 C-157.67 21.66 -157.34 22.32 -157 23 C-146.44 23 -135.88 23 -125 23 C-124.505 16.565 -124.505 16.565 -124 10 C-123.67 9.01 -123.34 8.02 -123 7 C-116.73 7 -110.46 7 -104 7 C-102.77731709 12.65490846 -102 17.15955528 -102 23 C-83.19 23 -64.38 23 -45 23 C-44.67 21.35 -44.34 19.7 -44 18 C-43.38511719 18.42152344 -42.77023437 18.84304687 -42.13671875 19.27734375 C-40.92435547 20.09912109 -40.92435547 20.09912109 -39.6875 20.9375 C-38.88699219 21.48277344 -38.08648437 22.02804688 -37.26171875 22.58984375 C-31.86925948 25.95198156 -25.59753838 25.77049641 -19.51953125 24.46875 C-12.31512999 22.24829802 -8.56852314 19.28762719 -4.8125 12.6875 C-2.62993771 8.50191781 -1.02234601 4.60055704 0 0 Z " fill="#200A23" transform="translate(413,114)"/>
<path d="M0 0 C5.61 0 11.22 0 17 0 C17 2.31 17 4.62 17 7 C11.72 7 6.44 7 1 7 C0.690625 9.083125 0.38125 11.16625 0.0625 13.3125 C-0.43886503 16.68835789 -0.92042564 19.76127691 -2 23 C-13.55 23 -25.1 23 -37 23 C-36 17 -36 17 -35 16 C-32.55169574 15.91156207 -30.13179401 15.88471248 -27.68359375 15.90234375 C-26.95253922 15.9037587 -26.22148468 15.90517365 -25.46827698 15.90663147 C-23.12464368 15.91224592 -20.78110461 15.92480078 -18.4375 15.9375 C-16.85221492 15.94251314 -15.26692834 15.94707637 -13.68164062 15.95117188 C-9.78769457 15.96137079 -5.89395323 15.98094313 -2 16 C-1.34 10.72 -0.68 5.44 0 0 Z " fill="#D21DF4" transform="translate(291,123)"/>
<path d="M0 0 C15.18 0 30.36 0 46 0 C46 3.3 46 6.6 46 10 C35.77 10 25.54 10 15 10 C15 8.02 15 6.04 15 4 C10.05 4 5.1 4 0 4 C0 2.68 0 1.36 0 0 Z " fill="#FBF6EC" transform="translate(602,62)"/>
<path d="M0 0 C1.02990295 2.03221921 2.02610293 4.0598192 2.9375 6.1484375 C5.47952858 11.47548268 8.36154568 15.13813143 13.59765625 17.96484375 C24.75691199 21.36002489 38.67455 20.41662951 49 15 C51 18 51 18 50.9296875 20.015625 C49.16839573 23.77502088 45.55654741 24.58234849 41.8671875 26.015625 C37.2517899 27.19045348 32.99562931 27.47963646 28.25 27.5 C27.45867676 27.50612305 26.66735352 27.51224609 25.85205078 27.51855469 C19.27733127 27.37840393 14.04139983 25.76825571 8.3125 22.4375 C2.24183939 16.03869558 0.20245537 8.65036564 0 0 Z " fill="#CF1AF2" transform="translate(570,121)"/>
<path d="M0 0 C0.33 0 0.66 0 1 0 C1.0247345 4.07510438 1.04287637 8.15017964 1.05493164 12.2253418 C1.05995777 13.61141725 1.06677966 14.99748741 1.07543945 16.38354492 C1.08758018 18.37676715 1.09271021 20.37002819 1.09765625 22.36328125 C1.10551147 24.16212769 1.10551147 24.16212769 1.11352539 25.99731445 C1 29 1 29 0 32 C-4.95 32 -9.9 32 -15 32 C-15.33 32.66 -15.66 33.32 -16 34 C-17.17101244 30.04293896 -18.33607272 26.08415032 -19.5 22.125 C-19.83386719 20.99707031 -20.16773438 19.86914062 -20.51171875 18.70703125 C-20.82753906 17.63066406 -21.14335937 16.55429687 -21.46875 15.4453125 C-21.76201172 14.45031738 -22.05527344 13.45532227 -22.35742188 12.43017578 C-23 10 -23 10 -23 8 C-22.01 8 -21.02 8 -20 8 C-19.34 10.97 -18.68 13.94 -18 17 C-12.06 17 -6.12 17 0 17 C0 11.39 0 5.78 0 0 Z " fill="#1E1D1C" transform="translate(341,41)"/>
<path d="M0 0 C0 4.29 0 8.58 0 13 C15.51 13 31.02 13 47 13 C47.495 19.93 47.495 19.93 48 27 C47.67 27 47.34 27 47 27 C46.67 22.71 46.34 18.42 46 14 C30.82 14 15.64 14 0 14 C0 15.32 0 16.64 0 18 C4.95 18 9.9 18 15 18 C15 19.98 15 21.96 15 24 C25.23 24 35.46 24 46 24 C46 24.33 46 24.66 46 25 C35.77 25 25.54 25 15 25 C14.67 29.62 14.34 34.24 14 39 C13.40404263 42.01484316 12.76947185 45.02470884 12 48 C8.04 48 4.08 48 0 48 C0.04125 46.88625 0.0825 45.7725 0.125 44.625 C0.41121859 40.95633975 0.41121859 40.95633975 -2 39 C1.96 39 5.92 39 10 39 C10.13277344 38.13117188 10.26554688 37.26234375 10.40234375 36.3671875 C10.57894531 35.21476562 10.75554688 34.06234375 10.9375 32.875 C11.11152344 31.73804687 11.28554688 30.60109375 11.46484375 29.4296875 C11.95581807 26.28315133 12.47645322 23.1412807 13 20 C8.05 20 3.1 20 -2 20 C-2 14.39 -2 8.78 -2 3 C-2.99 2.67 -3.98 2.34 -5 2 C-1.125 0 -1.125 0 0 0 Z " fill="#4E414D" transform="translate(602,48)"/>
<path d="M0 0 C0.33 0 0.66 0 1 0 C1.02686553 1.97909398 1.04633375 3.95828971 1.0625 5.9375 C1.07410156 7.03964844 1.08570313 8.14179687 1.09765625 9.27734375 C1 12 1 12 0 13 C-1.77999274 13.33918428 -3.5757637 13.59763057 -5.375 13.8125 C-6.35210938 13.94269531 -7.32921875 14.07289062 -8.3359375 14.20703125 C-11 14 -11 14 -12.8515625 12.13671875 C-14 10 -14 10 -14 8 C-14.75023437 8.433125 -15.50046875 8.86625 -16.2734375 9.3125 C-28.74059616 16.09563922 -28.74059616 16.09563922 -36 14 C-38.91013636 10.88199675 -40 9.27674069 -40 5 C-26.8 5 -13.6 5 0 5 C0 3.35 0 1.7 0 0 Z " fill="#35143A" transform="translate(820,106)"/>
<path d="M0 0 C6.93 0.33 13.86 0.66 21 1 C19.60162469 3.79675061 18.28150321 6.13309336 16.5625 8.6875 C10.5927201 18.33776368 10.36860088 27.9292631 10 39 C9.34 39 8.68 39 8 39 C8 40.65 8 42.3 8 44 C7.67 44 7.34 44 7 44 C6.98541748 43.23445801 6.97083496 42.46891602 6.95581055 41.68017578 C6.88065298 38.16131431 6.78421764 34.6433323 6.6875 31.125 C6.66494141 29.92101562 6.64238281 28.71703125 6.61914062 27.4765625 C6.33875738 18.09646842 5.22517343 9.96216904 0 2 C0 1.34 0 0.68 0 0 Z " fill="#0B0B0B" transform="translate(407,72)"/>
<path d="M0 0 C16.5 0 33 0 50 0 C50 0.33 50 0.66 50 1 C48.69546875 1.07476562 47.3909375 1.14953125 46.046875 1.2265625 C30.31510375 2.14326576 30.31510375 2.14326576 17 10 C14.30345146 10.07319621 11.63308542 10.09242537 8.9375 10.0625 C7.79958008 10.05573242 7.79958008 10.05573242 6.63867188 10.04882812 C4.75908129 10.0370068 2.87953101 10.01907078 1 10 C0.67 6.7 0.34 3.4 0 0 Z " fill="#F7F2E9" transform="translate(743,62)"/>
<path d="M0 0 C13.53 0 27.06 0 41 0 C41 1.32 41 2.64 41 4 C40.34 4 39.68 4 39 4 C39 3.34 39 2.68 39 2 C26.79 2 14.58 2 2 2 C2 5.63 2 9.26 2 13 C1.87264999 14.89887961 1.71918623 16.79701879 1.5 18.6875 C1.36078125 19.93080078 1.36078125 19.93080078 1.21875 21.19921875 C1.1465625 21.79347656 1.074375 22.38773438 1 23 C0.67 23 0.34 23 0 23 C0 20.69 0 18.38 0 16 C-15.51 16 -31.02 16 -47 16 C-47 15.01 -47 14.02 -47 13 C-31.82 13 -16.64 13 -1 13 C-0.505 6.565 -0.505 6.565 0 0 Z " fill="#010101" transform="translate(649,45)"/>
<path d="M0 0 C9 0 9 0 12.0625 1.375 C14.62368716 4.84499551 14.71702815 7.33998564 14.47265625 11.58203125 C14 14 14 14 12.0625 17.125 C9 19 9 19 0 19 C0 12.73 0 6.46 0 0 Z " fill="#0F0F0E" transform="translate(498,180)"/>
<path d="M0 0 C9 0 9 0 12.0625 1.375 C14.62368716 4.84499551 14.71702815 7.33998564 14.47265625 11.58203125 C14 14 14 14 12.0625 17.125 C9 19 9 19 0 19 C0 12.73 0 6.46 0 0 Z " fill="#0F0F0E" transform="translate(371,180)"/>
<path d="M0 0 C2.97 0 5.94 0 9 0 C10.39620372 8.97434088 9.33396966 17.23186118 8.0625 26.125 C7.86417726 27.57277225 7.66690368 29.02068863 7.47070312 30.46875 C6.99254217 33.98090933 6.5002509 37.49091054 6 41 C3.08391605 38.08391605 3.18285064 34.715067 2.67578125 30.78125 C2.50999825 29.56072937 2.50999825 29.56072937 2.34086609 28.31555176 C2.10913362 26.5945408 1.88160783 24.872959 1.65795898 23.15087891 C1.31368923 20.50912559 0.9537703 17.86984805 0.59179688 15.23046875 C0.36885488 13.56002059 0.14681893 11.88945121 -0.07421875 10.21875 C-0.18247482 9.42601685 -0.2907309 8.63328369 -0.40226746 7.81652832 C-1.11535867 2.23071735 -1.11535867 2.23071735 0 0 Z " fill="#1D1D1C" transform="translate(691,61)"/>
<path d="M0 0 C10.89 0 21.78 0 33 0 C33 2.31 33 4.62 33 7 C22.11 7 11.22 7 0 7 C0 4.69 0 2.38 0 0 Z " fill="#D01AF3" transform="translate(715,139)"/>
<path d="M0 0 C0.33 0.99 0.66 1.98 1 3 C11.56 3 22.12 3 33 3 C33 5.31 33 7.62 33 10 C22.44 10 11.88 10 1 10 C0.67 6.7 0.34 3.4 0 0 Z " fill="#D81BFB" transform="translate(679,127)"/>
<path d="M0 0 C10.23 0 20.46 0 31 0 C31.33 1.98 31.66 3.96 32 6 C32.99 6 33.98 6 35 6 C35.14288264 11.78408689 35.28528698 17.56818529 35.42724609 23.35229492 C35.47561677 25.32039713 35.52411865 27.28849611 35.57275391 29.2565918 C35.64259704 32.08381326 35.71196989 34.91104594 35.78125 37.73828125 C35.80312378 38.61962234 35.82499756 39.50096344 35.84753418 40.40901184 C35.86755493 41.22963608 35.88757568 42.05026031 35.90820312 42.89575195 C35.92596802 43.61745071 35.94373291 44.33914948 35.96203613 45.0827179 C35.99448624 46.72153954 36 48.36085712 36 50 C35.34 50.66 34.68 51.32 34 52 C32.68 51.67 31.36 51.34 30 51 C30 34.5 30 18 30 1 C20.1 1 10.2 1 0 1 C0 0.67 0 0.34 0 0 Z " fill="#000000" transform="translate(494,67)"/>
<path d="M0 0 C3.96 0 7.92 0 12 0 C12.02478935 4.60815035 12.0429023 9.21626153 12.05493164 13.82446289 C12.05994856 15.39087602 12.06676362 16.9572845 12.07543945 18.52368164 C12.08762094 20.78012239 12.09325481 23.03650102 12.09765625 25.29296875 C12.10281754 25.98899704 12.10797882 26.68502533 12.11329651 27.40214539 C12.11372667 31.16271792 11.74757049 34.26214756 11 38 C6.38 38 1.76 38 -3 38 C-3.33 38.66 -3.66 39.32 -4 40 C-4 39.34 -4 38.68 -4 38 C-12.25 38 -20.5 38 -29 38 C-27.45957252 42.80304035 -27.45957252 42.80304035 -25 45 C-25.99 45 -26.98 45 -28 45 C-30.80255323 42.0936485 -31 41.21174952 -31 37 C-17.47 37 -3.94 37 10 37 C9.4247076 17.35080907 9.4247076 17.35080907 0 2 C0 1.34 0 0.68 0 0 Z " fill="#060406" transform="translate(809,73)"/>
<path d="M0 0 C10.23 0 20.46 0 31 0 C31 0.33 31 0.66 31 1 C21.43 1 11.86 1 2 1 C2 16.51 2 32.02 2 48 C1.01 48 0.02 48 -1 48 C-1 34.14 -1 20.28 -1 6 C-1.99 6 -2.98 6 -4 6 C-4 20.52 -4 35.04 -4 50 C-4.33 50 -4.66 50 -5 50 C-5 35.15 -5 20.3 -5 5 C-3.35 5 -1.7 5 0 5 C0 3.35 0 1.7 0 0 Z " fill="#201621" transform="translate(530,67)"/>
<path d="M0 0 C3.25541688 1.58371632 3.85109528 2.77212003 5.3125 6.125 C5.67725911 9.90326226 5.5945988 13.64627098 5.5 17.4375 C5.48646484 18.46423828 5.47292969 19.49097656 5.45898438 20.54882812 C5.42373883 23.07475909 5.374467 25.5996066 5.3125 28.125 C3.1316632 24.8537448 3.02001763 23.51101242 2.8125 19.6875 C2.60982637 15.9633721 2.2100381 13.36152668 0.3125 10.125 C-2.55474686 10.69844937 -3.5489515 10.9864515 -5.6875 13.125 C-6.05644582 15.15560659 -6.05644582 15.15560659 -6.1015625 17.4765625 C-6.14023437 18.32734375 -6.17890625 19.178125 -6.21875 20.0546875 C-6.2496875 20.94414063 -6.280625 21.83359375 -6.3125 22.75 C-6.35117187 23.6471875 -6.38984375 24.544375 -6.4296875 25.46875 C-6.52409357 27.6872927 -6.60966748 29.90582403 -6.6875 32.125 C-7.3475 31.795 -8.0075 31.465 -8.6875 31.125 C-8.86199702 26.89635555 -8.96842495 22.66863749 -9.0625 18.4375 C-9.11277344 17.23931641 -9.16304688 16.04113281 -9.21484375 14.80664062 C-9.35943989 6.15497141 -9.35943989 6.15497141 -7.41967773 3.18164062 C-5.0140825 1.08936835 -3.19291181 0.14850753 0 0 Z " fill="#322433" transform="translate(379.6875,84.875)"/>
<path d="M0 0 C1.32 0 2.64 0 4 0 C4 6.6 4 13.2 4 20 C2.68 19.67 1.36 19.34 0 19 C-0.33 19.33 -0.66 19.66 -1 20 C-3.375 20.3125 -3.375 20.3125 -6 20 C-8.73482251 17.64239439 -8.98758539 16.09931686 -9.4375 12.5 C-9 9 -9 9 -7.25 6.5625 C-5 5 -5 5 -1 5 C-0.67 3.35 -0.34 1.7 0 0 Z " fill="#191817" transform="translate(598,179)"/>
<path d="M0 0 C10.56 0 21.12 0 32 0 C32 1.98 32 3.96 32 6 C21.44 6 10.88 6 0 6 C0 4.02 0 2.04 0 0 Z " fill="#DA1CFE" transform="translate(644,139)"/>
<path d="M0 0 C1.32 0.33 2.64 0.66 4 1 C5.67422986 0.70700977 7.34178227 0.37309899 9 0 C12.28453 0 14.84698314 0.23304995 18 1 C19 2 19 2 19.09765625 4.94140625 C19.08605469 6.13636719 19.07445312 7.33132812 19.0625 8.5625 C19.05347656 9.76003906 19.04445313 10.95757812 19.03515625 12.19140625 C19.02355469 13.11824219 19.01195312 14.04507813 19 15 C17.68 15 16.36 15 15 15 C15 11.04 15 7.08 15 3 C14.01 3.33 13.02 3.66 12 4 C11.67 7.63 11.34 11.26 11 15 C9.68 15 8.36 15 7 15 C7 11.04 7 7.08 7 3 C6.01 3.495 6.01 3.495 5 4 C4.5316735 6.58605332 4.5316735 6.58605332 4.375 9.5625 C4.26285156 11.08037109 4.26285156 11.08037109 4.1484375 12.62890625 C4.09945312 13.41136719 4.05046875 14.19382813 4 15 C2.68 15 1.36 15 0 15 C0 10.05 0 5.1 0 0 Z " fill="#141413" transform="translate(733,184)"/>
<path d="M0 0 C0.33 0 0.66 0 1 0 C1.71541165 3.93210031 2.42739889 7.86480373 3.13623047 11.7980957 C3.37780425 13.13583076 3.62031006 14.47339786 3.86376953 15.81079102 C4.21372037 17.73409226 4.56003308 19.65805435 4.90625 21.58203125 C5.11572266 22.73936768 5.32519531 23.8967041 5.54101562 25.08911133 C6 28 6 28 6 31 C2.37 31 -1.26 31 -5 31 C-1.65989848 3.31979695 -1.65989848 3.31979695 0 0 Z " fill="#261D26" transform="translate(299,69)"/>
<path d="M0 0 C0.99 0 1.98 0 3 0 C3.33 1.98 3.66 3.96 4 6 C4.763125 5.773125 5.52625 5.54625 6.3125 5.3125 C9 5 9 5 10.64453125 6.19921875 C12.33796257 8.44899349 12.40292027 9.70797289 12.375 12.5 C12.38273438 13.2734375 12.39046875 14.046875 12.3984375 14.84375 C12 17 12 17 9 20 C6.03 20 3.06 20 0 20 C0 13.4 0 6.8 0 0 Z " fill="#161514" transform="translate(655,179)"/>
<path d="M0 0 C1.55799507 2.87832987 2.46272321 5.58070625 3.25 8.75 C5.84018489 17.42648141 10.5354542 22.48088248 18.43359375 26.8125 C28.35268889 31.40215742 40.69432773 31.47748519 51 28 C59.27480256 24.77572381 64.64266399 20.98979878 68.47265625 12.8828125 C69.7145587 9.94237493 70.8895764 6.99224766 72 4 C72.99 4.99 72.99 4.99 74 6 C70.97703537 15.93561802 65.39585986 23.96598215 56.125 29 C44.64780111 33.97933859 32.10300253 34.18713366 20.1875 30.4375 C10.49619326 26.43271001 5.39564669 19.94850967 0.99609375 10.63671875 C0 8 0 8 0 5 C-0.66 5 -1.32 5 -2 5 C-2 4.01 -2 3.02 -2 2 C-1.34 2 -0.68 2 0 2 C0 1.34 0 0.68 0 0 Z " fill="#251527" transform="translate(417,109)"/>
<path d="M0 0 C0.33 0 0.66 0 1 0 C1.01417969 1.01578125 1.02835938 2.0315625 1.04296875 3.078125 C1.3665907 14.37184245 3.12234905 25.02315677 11.28515625 33.5390625 C19.86088833 40.84503926 30.17184001 42.48936862 41.17578125 42.25390625 C49.64177158 41.49278679 57.43075708 38.76550721 65 35 C65.33 35.66 65.66 36.32 66 37 C53.74750419 43.90832211 40.16358219 47.49908609 26.0859375 44.34765625 C16.11526104 41.07558919 8.23301818 35.90454066 3.18359375 26.578125 C1.45380158 22.81026087 0.10011188 18.99514313 -1 15 C-1.33 15 -1.66 15 -2 15 C-2 13.02 -2 11.04 -2 9 C-1.67 9 -1.34 9 -1 9 C-0.67 6.03 -0.34 3.06 0 0 Z " fill="#1B061E" transform="translate(748,97)"/>
<path d="M0 0 C4.29 0 8.58 0 13 0 C13 11.22 13 22.44 13 34 C12.34 34 11.68 34 11 34 C10.90203125 32.96101563 10.8040625 31.92203125 10.703125 30.8515625 C9.53861573 19.58517196 7.77085757 10.63428619 0 2 C0 1.34 0 0.68 0 0 Z " fill="#030303" transform="translate(480,73)"/>
<path d="M0 0 C9 0 9 0 11.5625 1.5 C12.036875 1.995 12.51125 2.49 13 3 C12.6875 6.375 12.6875 6.375 12 10 C8.77208445 12.1519437 7.71599191 12.20086443 4 12 C4 14.31 4 16.62 4 19 C2.68 19 1.36 19 0 19 C0 12.73 0 6.46 0 0 Z " fill="#100F0F" transform="translate(327,180)"/>
<path d="M0 0 C2.13711389 1.60787578 2.9020385 2.51284012 3.43359375 5.15625 C3.44409536 11.45721678 3.44409536 11.45721678 1.3125 14.0625 C-1.45413628 15.1841093 -3.04564756 15.51701168 -6 15 C-8.3125 13.4375 -8.3125 13.4375 -10 11 C-10.56783945 7.02512383 -10.62340519 4.93510779 -8.375 1.5625 C-5.31881548 -0.44814771 -3.59350675 -0.53520313 0 0 Z " fill="#111010" transform="translate(682,184)"/>
<path d="M0 0 C5.61 0 11.22 0 17 0 C17 3.3 17 6.6 17 10 C12.05 10 7.1 10 2 10 C1.34 6.7 0.68 3.4 0 0 Z " fill="#FBF6EC" transform="translate(324,62)"/>
<path d="M0 0 C0.99 1.485 0.99 1.485 2 3 C-0.53146303 11.78566579 -5.07293778 20.05905442 -13 25 C-18.9362306 27.60879123 -25.54389339 29.21936584 -32 28 C-35.49328839 26.58896626 -38.74956437 24.90004588 -42 23 C-42.33 23.66 -42.66 24.32 -43 25 C-51.25 25 -59.5 25 -68 25 C-68 24.67 -68 24.34 -68 24 C-60.74 23.67 -53.48 23.34 -46 23 C-45.34 21.35 -44.68 19.7 -44 18 C-43.38511719 18.42152344 -42.77023437 18.84304687 -42.13671875 19.27734375 C-40.92435547 20.09912109 -40.92435547 20.09912109 -39.6875 20.9375 C-38.88699219 21.48277344 -38.08648437 22.02804688 -37.26171875 22.58984375 C-31.86925948 25.95198156 -25.59753838 25.77049641 -19.51953125 24.46875 C-12.31512999 22.24829802 -8.56852314 19.28762719 -4.8125 12.6875 C-2.62993771 8.50191781 -1.02234601 4.60055704 0 0 Z " fill="#28102C" transform="translate(413,114)"/>
<path d="M0 0 C1.65 0.33 3.3 0.66 5 1 C5.33 2.32 5.66 3.64 6 5 C6.66 5 7.32 5 8 5 C8.66 3.35 9.32 1.7 10 0 C11.32 0.33 12.64 0.66 14 1 C13.29875 2.051875 12.5975 3.10375 11.875 4.1875 C10.10809624 7.17151738 10.10809624 7.17151738 10.625 10.5625 C11.07875 11.366875 11.5325 12.17125 12 13 C12.67795528 14.99620166 13.34733531 16.99538701 14 19 C12.68 19 11.36 19 10 19 C9.01 17.02 8.02 15.04 7 13 C6.01 14.98 5.02 16.96 4 19 C2.35 19 0.7 19 -1 19 C-0.69964844 18.49210937 -0.39929688 17.98421875 -0.08984375 17.4609375 C1.80994566 14.02199668 3.03162508 11.80643951 2.875 7.8125 C2.04251161 5.13664446 1.13116322 2.56396996 0 0 Z " fill="#100F0F" transform="translate(413,180)"/>
<path d="M0 0 C6.625 -0.25 6.625 -0.25 10 2 C10.51171875 4.8203125 10.51171875 4.8203125 10.6875 8.125 C10.75324219 9.22070312 10.81898438 10.31640625 10.88671875 11.4453125 C10.92410156 12.28835937 10.96148437 13.13140625 11 14 C9.68 14 8.36 14 7 14 C5.80375 14.20625 4.6075 14.4125 3.375 14.625 C2.26125 14.74875 1.1475 14.8725 0 15 C-2 13 -2 13 -2.3125 10.5 C-2.209375 9.675 -2.10625 8.85 -2 8 C1.22791555 5.8480563 2.28400809 5.79913557 6 6 C6 5.01 6 4.02 6 3 C4.02 3 2.04 3 0 3 C0 2.01 0 1.02 0 0 Z " fill="#141413" transform="translate(466,184)"/>
<path d="M0 0 C1.875 1.5 1.875 1.5 3 3 C-0.28976808 4.09658936 -1.71303767 3.79953138 -5 3 C-4.28995535 6.27856999 -4.28995535 6.27856999 -1.0625 7.5625 C-0.051875 8.036875 0.95875 8.51125 2 9 C4 11 4 11 4.375 13.4375 C4 16 4 16 2.4375 17.8125 C-0.9011025 19.43899865 -3.33376496 19.39995291 -7 19 C-8.9375 17.5 -8.9375 17.5 -10 16 C-6.92677456 15.08941469 -4.19902639 14.91113816 -1 15 C-0.67 14.01 -0.34 13.02 0 12 C-1.11375 11.71125 -2.2275 11.4225 -3.375 11.125 C-7 10 -7 10 -9 8 C-9.3125 5 -9.3125 5 -9 2 C-5.53076119 -0.31282587 -4.07794425 -0.42478586 0 0 Z " fill="#151514" transform="translate(353,180)"/>
<path d="M0 0 C6.44283647 -0.36468886 6.44283647 -0.36468886 8.71875 1.125 C10.57197706 3.8370396 10.29215369 5.94323564 10.1875 9.1875 C10.16042969 10.27417969 10.13335938 11.36085937 10.10546875 12.48046875 C10.07066406 13.31191406 10.03585937 14.14335937 10 15 C9.360625 14.814375 8.72125 14.62875 8.0625 14.4375 C7.0415625 14.2209375 7.0415625 14.2209375 6 14 C5.67 14.33 5.34 14.66 5 15 C2.5625 15.1875 2.5625 15.1875 0 15 C-2 13 -2 13 -2.3125 10.5 C-2.209375 9.675 -2.10625 8.85 -2 8 C1.22791555 5.8480563 2.28400809 5.79913557 6 6 C5.67 5.34 5.34 4.68 5 4 C1.97065509 3.34227572 1.97065509 3.34227572 -1 3 C-0.67 2.01 -0.34 1.02 0 0 Z " fill="#121111" transform="translate(639,184)"/>
<path d="M0 0 C2.31 0 4.62 0 7 0 C7.0093457 0.88147705 7.01869141 1.7629541 7.02832031 2.67114258 C7.07277821 5.99480605 7.13458318 9.31726535 7.20751953 12.64038086 C7.23545241 14.06864986 7.25680215 15.4970655 7.27099609 16.92553711 C7.37774867 27.07059022 8.09566542 36.84232211 14.125 45.4375 C20.81579813 51.40103747 28.02273596 52.60563325 36.80859375 52.3359375 C41.46096173 51.84621455 45.61355859 50.55908507 50 49 C51.32935281 48.6511304 52.66165046 48.31258504 54 48 C54 48.66 54 49.32 54 50 C44.82310585 55.54076628 33.34743701 55.34320797 23 54 C15.56672675 51.79499658 11.78746685 47.15404905 8.05859375 40.5625 C5.91872484 35.38259591 5.87943529 30.17666082 5.90234375 24.6328125 C5.9037587 23.95322479 5.90517365 23.27363708 5.90663147 22.57345581 C5.91218482 20.42392388 5.92472831 18.27449992 5.9375 16.125 C5.94252104 14.65885568 5.94708289 13.19270971 5.95117188 11.7265625 C5.96213889 8.15100717 5.97937081 4.57551414 6 1 C4.02 1 2.04 1 0 1 C0 0.67 0 0.34 0 0 Z " fill="#160E17" transform="translate(564,87)"/>
<path d="M0 0 C1.98139804 3.96279608 2.68862392 7.315613 3.25 11.625 C3.4046875 12.6459375 3.4046875 12.6459375 3.5625 13.6875 C3.79915579 15.44849747 3.90857509 17.22552556 4 19 C3.34 19.66 2.68 20.32 2 21 C1.6925109 23.90664221 1.4889338 26.71185845 1.375 29.625 C1.189375 33.770625 1.189375 33.770625 1 38 C-10.22 38 -21.44 38 -33 38 C-33 31 -33 31 -32 30 C-29.6243148 29.9116033 -27.27791326 29.88469695 -24.90234375 29.90234375 C-23.83905602 29.90446617 -23.83905602 29.90446617 -22.75428772 29.90663147 C-20.48198288 29.91224557 -18.20977525 29.92480037 -15.9375 29.9375 C-14.40039204 29.94251319 -12.86328255 29.94707641 -11.32617188 29.95117188 C-7.55071333 29.9613703 -3.77546596 29.98094268 0 30 C0 20.1 0 10.2 0 0 Z M-32 31 C-32 32.98 -32 34.96 -32 37 C-21.44 37 -10.88 37 0 37 C0 35.02 0 33.04 0 31 C-10.56 31 -21.12 31 -32 31 Z " fill="#650C76" transform="translate(676,108)"/>
<path d="M0 0 C3.4452641 3.77867675 3 5.62582511 3 11 C-1.62 11 -6.24 11 -11 11 C-10.40298507 3.71641791 -10.40298507 3.71641791 -8.875 1 C-5.77099789 -0.65546779 -3.43001482 -0.49000212 0 0 Z " fill="#1C131D" transform="translate(788,83)"/>
<path d="M0 0 C5.61 0 11.22 0 17 0 C17 2.31 17 4.62 17 7 C11.72 7 6.44 7 1 7 C0.67 9.97 0.34 12.94 0 16 C-0.66 15.67 -1.32 15.34 -2 15 C-1.34 10.05 -0.68 5.1 0 0 Z " fill="#C018DF" transform="translate(291,123)"/>
<path d="M0 0 C3.375 0.9375 3.375 0.9375 5.375 3.9375 C5.375 5.2575 5.375 6.5775 5.375 7.9375 C2.405 7.9375 -0.565 7.9375 -3.625 7.9375 C-3.295 8.9275 -2.965 9.9175 -2.625 10.9375 C-0.645 10.9375 1.335 10.9375 3.375 10.9375 C3.705 11.9275 4.035 12.9175 4.375 13.9375 C1.53416359 15.35791821 -0.47977278 15.25202272 -3.625 14.9375 C-6 13.375 -6 13.375 -7.625 10.9375 C-8.19145882 6.97228823 -8.20090314 4.85894502 -6.0625 1.4375 C-3.625 -0.0625 -3.625 -0.0625 0 0 Z " fill="#2B2A28" transform="translate(764.625,184.0625)"/>
<path d="M0 0 C1.32 0 2.64 0 4 0 C4.66 2.64 5.32 5.28 6 8 C7.41377341 5.36095629 8.37240135 2.92879371 9 0 C10.32 0 11.64 0 13 0 C8.89320388 17.73786408 8.89320388 17.73786408 4 21 C3.01 21 2.02 21 1 21 C1 18 1 18 2.5 16.3125 C2.995 15.879375 3.49 15.44625 4 15 C3.525625 14.01 3.05125 13.02 2.5625 12 C0.83186252 8.00810505 0.37884686 4.31885418 0 0 Z " fill="#121211" transform="translate(430,184)"/>
<path d="M0 0 C3 0.4375 3 0.4375 4.875 1.625 C6.34781139 3.99786279 6.22223194 5.69663944 6 8.4375 C3.36 8.4375 0.72 8.4375 -2 8.4375 C-1.67 9.4275 -1.34 10.4175 -1 11.4375 C0.98 11.4375 2.96 11.4375 5 11.4375 C5.33 12.4275 5.66 13.4175 6 14.4375 C-1.25 15.8875 -1.25 15.8875 -4.5 13.9375 C-6.54127445 10.53537592 -6.48819316 8.34304529 -6 4.4375 C-4.4369108 1.05080673 -3.7186535 0.54230363 0 0 Z " fill="#292826" transform="translate(523,183.5625)"/>
<path d="M0 0 C2.475 0.495 2.475 0.495 5 1 C5.886875 0.814375 6.77375 0.62875 7.6875 0.4375 C8.8321875 0.2209375 8.8321875 0.2209375 10 0 C12 2 12 2 12.1953125 5.0390625 C12.17210937 6.22242188 12.14890625 7.40578125 12.125 8.625 C12.10695313 9.81351563 12.08890625 11.00203125 12.0703125 12.2265625 C12.04710937 13.14179688 12.02390625 14.05703125 12 15 C10.68 15 9.36 15 8 15 C8 11.04 8 7.08 8 3 C7.01 3.33 6.02 3.66 5 4 C4.67 7.63 4.34 11.26 4 15 C2.68 15 1.36 15 0 15 C0 10.05 0 5.1 0 0 Z " fill="#151414" transform="translate(447,184)"/>
<path d="M0 0 C1.65 0.33 3.3 0.66 5 1 C5 1.99 5 2.98 5 4 C5.66 4 6.32 4 7 4 C7.33 2.68 7.66 1.36 8 0 C9.32 0.33 10.64 0.66 12 1 C11.649375 1.53625 11.29875 2.0725 10.9375 2.625 C9.68371189 5.8012632 10.18001808 7.72007231 11 11 C11.97348627 13.28480253 11.97348627 13.28480253 13 15 C11.35 15 9.7 15 8 15 C7.67 13.35 7.34 11.7 7 10 C6.34 10 5.68 10 5 10 C4.34 11.65 3.68 13.3 3 15 C1.68 14.67 0.36 14.34 -1 14 C-0.484375 13.29875 0.03125 12.5975 0.5625 11.875 C2.32762548 8.34474904 1.9797241 6.75560906 1 3 C0.67 2.01 0.34 1.02 0 0 Z " fill="#131211" transform="translate(481,184)"/>
<path d="M0 0 C7.59 0 15.18 0 23 0 C18.1806677 4.8193323 15.5911215 6.08188892 8.9375 6.375 C5.41368694 6.31198099 4.31639978 6.22599985 1.375 4.125 C0 2 0 2 0 0 Z " fill="#D31BF6" transform="translate(780,112)"/>
<path d="M0 0 C2.31 0.33 4.62 0.66 7 1 C7 1.33 7 1.66 7 2 C5.35 2 3.7 2 2 2 C2 33.35 2 64.7 2 97 C-0.25 92.5 -0.25 92.5 -0.24050903 88.98834229 C-0.24325836 88.2003273 -0.24600769 87.41231232 -0.24884033 86.60041809 C-0.24164978 85.74518051 -0.23445923 84.88994293 -0.22705078 84.00878906 C-0.22734283 83.10112289 -0.22763489 82.19345673 -0.22793579 81.25828552 C-0.22654338 78.26063449 -0.21098625 75.26323257 -0.1953125 72.265625 C-0.19158206 70.18626033 -0.18873523 68.10689391 -0.18673706 66.02752686 C-0.17910308 60.55632672 -0.15945654 55.08523287 -0.1373291 49.61407471 C-0.11686565 44.03049151 -0.10773427 38.44689114 -0.09765625 32.86328125 C-0.07621049 21.90880748 -0.04207731 10.95441258 0 0 Z " fill="#3D3C3A" transform="translate(341,39)"/>
<path d="M0 0 C1.98 0 3.96 0 6 0 C6 10.23 6 20.46 6 31 C8.97 29.35 11.94 27.7 15 26 C23.49727295 24.69584276 31.83422561 24.94180631 39 30 C41 32.25 41 32.25 42 34 C39 34 39 34 36.75 32.125 C32.12398467 28.55035179 27.00143173 27.52835066 21.18359375 27.67578125 C15.04188682 28.58769838 9.90496049 31.32127963 5 35 C5 23.78 5 12.56 5 1 C3.35 1 1.7 1 0 1 C0 0.67 0 0.34 0 0 Z " fill="#413F3C" transform="translate(366,38)"/>
<path d="M0 0 C8.13391307 -0.28203582 14.51499061 1.0379129 21.19140625 5.77734375 C26.15219024 9.12813699 31.54764981 9.04543738 37.37890625 9.15234375 C37.37890625 9.48234375 37.37890625 9.81234375 37.37890625 10.15234375 C25.96476911 11.88591947 25.96476911 11.88591947 22.34375 10.2109375 C21.2683593 9.3257879 20.20860344 8.42135183 19.1640625 7.5 C12.48418104 2.45720109 2.35536561 2.34406254 -5.62109375 3.15234375 C-10.80280185 4.27817448 -15.75756453 6.04481442 -20.62109375 8.15234375 C-20.95109375 7.49234375 -21.28109375 6.83234375 -21.62109375 6.15234375 C-14.12744003 2.41929199 -8.25385212 0.47973209 0 0 Z " fill="#333230" transform="translate(783.62109375,62.84765625)"/>
<path d="M0 0 C0.99 0 1.98 0 3 0 C3.33 3.63 3.66 7.26 4 11 C4.99 11 5.98 11 7 11 C7.33 7.37 7.66 3.74 8 0 C8.99 0 9.98 0 11 0 C11 4.95 11 9.9 11 15 C9.68 14.67 8.36 14.34 7 14 C6.67 14.33 6.34 14.66 6 15 C3.5 15.125 3.5 15.125 1 15 C0 14 0 14 -0.09765625 10.83984375 C-0.08025391 8.90818359 -0.08025391 8.90818359 -0.0625 6.9375 C-0.05347656 5.64714844 -0.04445313 4.35679687 -0.03515625 3.02734375 C-0.02355469 2.02832031 -0.01195312 1.02929688 0 0 Z " fill="#0A0909" transform="translate(691,184)"/>
<path d="M0 0 C1.32 0 2.64 0 4 0 C4.99 2.97 5.98 5.94 7 9 C7.66 6.03 8.32 3.06 9 0 C10.32 0 11.64 0 13 0 C12.52229477 1.93786085 12.04278429 3.87527674 11.5625 5.8125 C11.29566406 6.89144531 11.02882813 7.97039062 10.75390625 9.08203125 C10.23922588 11.0740843 9.65062825 13.04811524 9 15 C7.35 15 5.7 15 4 15 C3.3299166 12.87607494 2.66403203 10.75082476 2 8.625 C1.62875 7.44164062 1.2575 6.25828125 0.875 5.0390625 C0 2 0 2 0 0 Z " fill="#0D0D0C" transform="translate(533,184)"/>
<path d="M0 0 C0.33 0 0.66 0 1 0 C0.67 20.46 0.34 40.92 0 62 C-0.33 62 -0.66 62 -1 62 C-1.33 52.1 -1.66 42.2 -2 32 C-2.33 32 -2.66 32 -3 32 C-3.21792546 24.64905153 -2.57688098 17.64152123 -1.5 10.375 C-1.35691406 9.37082031 -1.21382812 8.36664063 -1.06640625 7.33203125 C-0.71712435 4.88705792 -0.36157276 2.44318049 0 0 Z " fill="#252423" transform="translate(717,75)"/>
<path d="M0 0 C0.33 0 0.66 0 1 0 C0.67 3.63 0.34 7.26 0 11 C-3.96 11 -7.92 11 -12 11 C-12 8.69 -12 6.38 -12 4 C-8.04 4 -4.08 4 0 4 C0 2.68 0 1.36 0 0 Z " fill="#D61BFA" transform="translate(614,85)"/>
<path d="M0 0 C0.33 1.32 0.66 2.64 1 4 C-0.65 4 -2.3 4 -4 4 C-4 6.31 -4 8.62 -4 11 C-2.35 11 -0.7 11 1 11 C1.33 11.99 1.66 12.98 2 14 C-0.79870027 15.39935013 -2.90498792 15.25265405 -6 15 C-7.875 14 -7.875 14 -9 12 C-9.39174433 7.88668458 -9.56377991 5.25284424 -7.875 1.5 C-5.24118585 -0.60705132 -3.27388743 -0.29101222 0 0 Z " fill="#191918" transform="translate(584,184)"/>
<path d="M0 0 C0.99 0 1.98 0 3 0 C3 0.99 3 1.98 3 3 C4.32 3 5.64 3 7 3 C6.67 3.99 6.34 4.98 6 6 C5.34 6 4.68 6 4 6 C4 8.97 4 11.94 4 15 C5.32 15.33 6.64 15.66 8 16 C7.34 16.66 6.68 17.32 6 18 C1.44444444 17.44444444 1.44444444 17.44444444 0 16 C-0.07205511 14.31391034 -0.08386068 12.62499341 -0.0625 10.9375 C-0.05347656 10.01839844 -0.04445313 9.09929687 -0.03515625 8.15234375 C-0.02355469 7.44207031 -0.01195312 6.73179687 0 6 C-0.66 6 -1.32 6 -2 6 C-2 5.01 -2 4.02 -2 3 C-1.34 3 -0.68 3 0 3 C0 2.01 0 1.02 0 0 Z " fill="#151413" transform="translate(709,181)"/>
<path d="M0 0 C1.98 0 3.96 0 6 0 C6 0.66 6 1.32 6 2 C5.34 2 4.68 2 4 2 C4 6.62 4 11.24 4 16 C4.99 16.33 5.98 16.66 7 17 C6.67 17.66 6.34 18.32 6 19 C4.02 19 2.04 19 0 19 C0 12.73 0 6.46 0 0 Z " fill="#050505" transform="translate(498,180)"/>
<path d="M0 0 C1.98 0 3.96 0 6 0 C6 0.66 6 1.32 6 2 C5.34 2 4.68 2 4 2 C4 6.62 4 11.24 4 16 C4.99 16.33 5.98 16.66 7 17 C6.67 17.66 6.34 18.32 6 19 C4.02 19 2.04 19 0 19 C0 12.73 0 6.46 0 0 Z " fill="#050505" transform="translate(371,180)"/>
<path d="M0 0 C0.99 0 1.98 0 3 0 C4.00646726 3.43564022 5.0040545 6.87379629 6 10.3125 C6.28617188 11.28896484 6.57234375 12.26542969 6.8671875 13.27148438 C7.13789062 14.20927734 7.40859375 15.14707031 7.6875 16.11328125 C8.06455078 17.40939331 8.06455078 17.40939331 8.44921875 18.73168945 C9 21 9 21 9 24 C7.68 24 6.36 24 5 24 C4.15642037 20.940229 3.3269798 17.8767954 2.5 14.8125 C2.26152344 13.94818359 2.02304687 13.08386719 1.77734375 12.19335938 C1.55175781 11.35224609 1.32617188 10.51113281 1.09375 9.64453125 C0.88427734 8.87471924 0.67480469 8.10490723 0.45898438 7.31176758 C-0.03538729 4.82176477 -0.07833519 2.53218501 0 0 Z " fill="#1B1B1A" transform="translate(623,178)"/>
<path d="M0 0 C1.32 0 2.64 0 4 0 C5.00646726 3.43564022 6.0040545 6.87379629 7 10.3125 C7.28617187 11.28896484 7.57234375 12.26542969 7.8671875 13.27148438 C8.13789063 14.20927734 8.40859375 15.14707031 8.6875 16.11328125 C9.06455078 17.40939331 9.06455078 17.40939331 9.44921875 18.73168945 C10 21 10 21 10 24 C8.68 24 7.36 24 6 24 C4.99589032 20.37612543 3.99741092 16.75072349 3 13.125 C2.71382813 12.09246094 2.42765625 11.05992187 2.1328125 9.99609375 C1.86210937 9.00996094 1.59140625 8.02382812 1.3125 7.0078125 C1.06113281 6.09660645 0.80976563 5.18540039 0.55078125 4.24658203 C0 2 0 2 0 0 Z " fill="#1C1B1A" transform="translate(398,178)"/>
<path d="M0 0 C0.99 0.33 1.98 0.66 3 1 C3.17015625 2.21816406 3.3403125 3.43632813 3.515625 4.69140625 C3.75966595 6.31521717 4.00449989 7.93890905 4.25 9.5625 C4.41435547 10.76229492 4.41435547 10.76229492 4.58203125 11.98632812 C5.51738062 18.01687014 6.95843407 23.35810531 11.75390625 27.5234375 C17.39754562 30.18070183 22.79765287 30.77197253 29 31 C29 31.33 29 31.66 29 32 C14.34161994 33.03066735 14.34161994 33.03066735 9.3125 29.6875 C4.13918643 24.87485317 2.24412516 18.519471 1.765625 11.62109375 C1.7519895 8.73377572 1.81899043 5.88106902 2 3 C1.34 3 0.68 3 0 3 C0 2.01 0 1.02 0 0 Z " fill="#210526" transform="translate(491,109)"/>
<path d="M0 0 C1.32 0 2.64 0 4 0 C4 6.6 4 13.2 4 20 C3.01 20 2.02 20 1 20 C1 19.34 1 18.68 1 18 C0.34 18 -0.32 18 -1 18 C-0.98839844 17.30132812 -0.97679687 16.60265625 -0.96484375 15.8828125 C-0.95582031 14.97273437 -0.94679688 14.06265625 -0.9375 13.125 C-0.92589844 12.22007812 -0.91429687 11.31515625 -0.90234375 10.3828125 C-0.83750743 7.9831415 -0.83750743 7.9831415 -2 6 C-1.34 6 -0.68 6 0 6 C0 4.02 0 2.04 0 0 Z " fill="#131212" transform="translate(598,179)"/>
<path d="M0 0 C0.99 0 1.98 0 3 0 C3.33 2.97 3.66 5.94 4 9 C6.64 9 9.28 9 12 9 C12.33 7.35 12.66 5.7 13 4 C13.33 4 13.66 4 14 4 C14.05410687 5.77049689 14.09284119 7.54146849 14.125 9.3125 C14.14820313 10.29863281 14.17140625 11.28476562 14.1953125 12.30078125 C14 15 14 15 12 18 C12 16.02 12 14.04 12 12 C8.7 12.33 5.4 12.66 2 13 C0 4.5 0 4.5 0 0 Z " fill="#070707" transform="translate(688,49)"/>
<path d="M0 0 C2.4375 0.1875 2.4375 0.1875 5 1 C7.66181082 4.2955753 7.15640774 7.93339881 7 12 C6.01 10.68 5.02 9.36 4 8 C2.35 8.33 0.7 8.66 -1 9 C-1.99 12.465 -1.99 12.465 -3 16 C-3.33 16 -3.66 16 -4 16 C-4.34963286 10.17278563 -4.19639756 6.11423609 -1 1 C-0.67 0.67 -0.34 0.34 0 0 Z " fill="#C218E2" transform="translate(452,87)"/>
<path d="M0 0 C4.29 0 8.58 0 13 0 C13 2.31 13 4.62 13 7 C9.94678976 7.29357791 7.04353857 7.43479122 4 7 C1.4375 4.625 1.4375 4.625 0 2 C0 1.34 0 0.68 0 0 Z " fill="#D21AF4" transform="translate(807,112)"/>
<path d="M0 0 C3.33622206 5.78019869 3.37160518 10.88052303 3.1875 17.4375 C3.17396484 18.35982422 3.16042969 19.28214844 3.14648438 20.23242188 C3.11140953 22.48890383 3.06226387 24.74413226 3 27 C1.39860851 23.95173725 0.66801847 21.6331801 0.375 18.1875 C0.29894531 17.31222656 0.22289062 16.43695313 0.14453125 15.53515625 C0.02290276 13.4017268 0.02803845 11.26161581 0.0625 9.125 C0.0012954 6.06476992 -0.37267731 4.5426917 -2 2 C-4.41585574 2.03093173 -4.41585574 2.03093173 -7 3 C-8.85916824 5.96707046 -8.85916824 5.96707046 -10 9 C-10.6875 7.3125 -10.6875 7.3125 -11 5 C-8.27603191 -0.57764895 -6.0929543 -1.9895361 0 0 Z " fill="#231E22" transform="translate(458,86)"/>
<path d="M0 0 C5 1 5 1 6 2 C6.16796875 3.99609375 6.16796875 3.99609375 6.1875 6.4375 C6.20167969 7.24058594 6.21585937 8.04367188 6.23046875 8.87109375 C6 11 6 11 4 13 C2.68 13 1.36 13 0 13 C0 8.71 0 4.42 0 0 Z " fill="#F5F1E7" transform="translate(502,183)"/>
<path d="M0 0 C5 1 5 1 6 2 C6.16796875 3.99609375 6.16796875 3.99609375 6.1875 6.4375 C6.20167969 7.24058594 6.21585937 8.04367188 6.23046875 8.87109375 C6 11 6 11 4 13 C2.68 13 1.36 13 0 13 C0 8.71 0 4.42 0 0 Z " fill="#F5F1E7" transform="translate(375,183)"/>
<path d="M0 0 C0.99 0 1.98 0 3 0 C3 2.31 3 4.62 3 7 C3.66 7.33 4.32 7.66 5 8 C4.67 8.33 4.34 8.66 4 9 C3.66143172 14.32673036 3.66143172 14.32673036 6 19 C4.02 19.33 2.04 19.66 0 20 C0 13.4 0 6.8 0 0 Z " fill="#020201" transform="translate(655,179)"/>
<path d="M0 0 C2.48253275 1.32401747 2.98977221 2.34431664 3.875 5 C4 7.75 4 7.75 3.875 10 C2.885 9.34 1.895 8.68 0.875 8 C-2.15952373 8.37931547 -3.50061021 9.25040681 -6.125 11 C-6.61014851 4.69306931 -6.61014851 4.69306931 -4.375 1.5 C-2.125 0 -2.125 0 0 0 Z " fill="#CC1AED" transform="translate(379.125,87)"/>
<path d="M0 0 C1.4589426 0.47730838 2.91713496 0.95691042 4.375 1.4375 C5.18710937 1.70433594 5.99921875 1.97117188 6.8359375 2.24609375 C9 3 9 3 11 4 C10.9375 6.3125 10.9375 6.3125 10 9 C6.49851158 10.88042897 3.9919694 12 0 12 C0 11.01 0 10.02 0 9 C1.98 8.01 3.96 7.02 6 6 C4.02 5.01 2.04 4.02 0 3 C0 2.01 0 1.02 0 0 Z " fill="#181817" transform="translate(550,184)"/>
<path d="M0 0 C-7.86241066 5.2416071 -19.83445386 4.48477699 -29 5 C-28.67 4.01 -28.34 3.02 -28 2 C-9.17995444 -0.29612756 -9.17995444 -0.29612756 0 0 Z " fill="#10100F" transform="translate(600,49)"/>
<path d="M0 0 C7.26 0 14.52 0 22 0 C22 0.66 22 1.32 22 2 C20.62328125 2.03867188 20.62328125 2.03867188 19.21875 2.078125 C11.76336206 2.42270175 6.37404296 3.04809337 0 7 C0 4.69 0 2.38 0 0 Z " fill="#DBD4CF" transform="translate(373,62)"/>
<path d="M0 0 C4.875 0.875 4.875 0.875 6 2 C6.07258946 4.18639453 6.08373783 6.37500389 6.0625 8.5625 C6.05347656 9.76003906 6.04445313 10.95757812 6.03515625 12.19140625 C6.02355469 13.11824219 6.01195312 14.04507813 6 15 C4.68 15 3.36 15 2 15 C2 11.04 2 7.08 2 3 C1.34 2.67 0.68 2.34 0 2 C0 1.34 0 0.68 0 0 Z " fill="#0F0F0E" transform="translate(746,184)"/>
<path d="M0 0 C2.31 0 4.62 0 7 0 C7 3.3 7 6.6 7 10 C5.02 10 3.04 10 1 10 C0.67 6.7 0.34 3.4 0 0 Z " fill="#F6F2E8" transform="translate(692,62)"/>
<path d="M0 0 C0.99 0 1.98 0 3 0 C2.85888117 2.75031587 2.71228835 5.50015418 2.5625 8.25 C2.50352539 9.41595703 2.50352539 9.41595703 2.44335938 10.60546875 C2.40146484 11.35957031 2.35957031 12.11367187 2.31640625 12.890625 C2.27974854 13.58188477 2.24309082 14.27314453 2.20532227 14.98535156 C1.99324476 17.06628329 1.55491323 18.98572422 1 21 C0.34 21 -0.32 21 -1 21 C-2.07558786 16.17113701 -1.81674203 11.95964459 -1.0625 7.125 C-0.96259766 6.43664062 -0.86269531 5.74828125 -0.75976562 5.0390625 C-0.51463547 3.35817003 -0.25845587 1.67889513 0 0 Z " fill="#5F1F69" transform="translate(712,109)"/>
<path d="M0 0 C1.2684375 0.12375 1.2684375 0.12375 2.5625 0.25 C4.5625 3.25 4.5625 3.25 4.5625 7.25 C1.2625 7.25 -2.0375 7.25 -5.4375 7.25 C-3.22937817 0.33121827 -3.22937817 0.33121827 0 0 Z " fill="#D01AF2" transform="translate(784.4375,84.75)"/>
<path d="M0 0 C0.598125 0.226875 1.19625 0.45375 1.8125 0.6875 C1.1525 1.3475 0.4925 2.0075 -0.1875 2.6875 C-0.50154687 6.92713281 -0.51367985 10.05284398 1.8125 13.6875 C-0.42038365 13.30252006 -2.02406302 12.79256663 -3.9375 11.5625 C-5.91715209 8.59302186 -5.55869517 6.15198827 -5.1875 2.6875 C-3.58118253 0.11739205 -3.03484548 -0.43354935 0 0 Z " fill="#0C0C0B" transform="translate(677.1875,185.3125)"/>
<path d="M0 0 C3 1 3 1 5 2 C4.67 4.31 4.34 6.62 4 9 C1.625 9.125 1.625 9.125 -1 9 C-3 7 -3 7 -3.3125 4.5 C-3.209375 3.675 -3.10625 2.85 -3 2 C-2.01 1.34 -1.02 0.68 0 0 Z " fill="#514F4C" transform="translate(467,190)"/>
<path d="M0 0 C0.33 0 0.66 0 1 0 C1.01417969 1.01578125 1.02835938 2.0315625 1.04296875 3.078125 C1.28794238 11.41840972 2.22414298 18.00992539 5.94140625 25.64453125 C7 28 7 28 7 31 C4.2577019 28.62490421 3.18082584 26.38265167 1.9375 23 C0.81438429 19.96894073 -0.18945941 17.71581089 -2 15 C-2.125 11.8125 -2.125 11.8125 -2 9 C-1.67 9 -1.34 9 -1 9 C-0.67 6.03 -0.34 3.06 0 0 Z " fill="#372937" transform="translate(748,97)"/>
<path d="M0 0 C2.6875 0.875 2.6875 0.875 5 2 C4.835 2.598125 4.67 3.19625 4.5 3.8125 C3.8885876 6.11344336 3.8885876 6.11344336 4 9 C1.625 9.125 1.625 9.125 -1 9 C-3 7 -3 7 -3.3125 4.5 C-3.209375 3.675 -3.10625 2.85 -3 2 C-2.01 1.34 -1.02 0.68 0 0 Z " fill="#52514D" transform="translate(640,190)"/>
<path d="M0 0 C0.33 0 0.66 0 1 0 C1.33 3.96 1.66 7.92 2 12 C2.66 12 3.32 12 4 12 C4.33 10.68 4.66 9.36 5 8 C5.33 9.98 5.66 11.96 6 14 C2.7 14 -0.6 14 -4 14 C-3.34 13.67 -2.68 13.34 -2 13 C-1.30662208 9.9600352 -1.30662208 9.9600352 -0.875 6.4375 C-0.70742188 5.23996094 -0.53984375 4.04242188 -0.3671875 2.80859375 C-0.24601562 1.88175781 -0.12484375 0.95492187 0 0 Z " fill="#0D040F" transform="translate(299,86)"/>
<path d="M0 0 C2.31 0 4.62 0 7 0 C7 2.31 7 4.62 7 7 C4.69 7 2.38 7 0 7 C0 4.69 0 2.38 0 0 Z " fill="#D81BFB" transform="translate(562,89)"/>
<path d="M0 0 C3.16046003 0.87185104 5.41018971 2.09520931 8.0625 4 C13.05855123 7.39731483 18.42611968 7.32958303 24.3125 7.4375 C24.3125 7.7675 24.3125 8.0975 24.3125 8.4375 C12.89836286 10.17107572 12.89836286 10.17107572 9.27734375 8.49609375 C8.21110464 7.61847679 7.16648315 6.71396823 6.14453125 5.78515625 C2.45821899 3.07347666 -2.28297922 2.41716737 -6.6875 1.4375 C-3.6875 -0.5625 -3.6875 -0.5625 0 0 Z " fill="#403F3C" transform="translate(796.6875,64.5625)"/>
<path d="M0 0 C3.69230769 0.69230769 3.69230769 0.69230769 5 2 C5.1875 4.4375 5.1875 4.4375 5 7 C4.34 7.66 3.68 8.32 3 9 C0.875 8.625 0.875 8.625 -1 8 C-1.04241723 5.66705225 -1.04092937 3.33297433 -1 1 C-0.67 0.67 -0.34 0.34 0 0 Z " fill="#E4DFD6" transform="translate(677,187)"/>
<path d="M0 0 C0.99 0 1.98 0 3 0 C3 4.95 3 9.9 3 15 C2.01 15 1.02 15 0 15 C-1.09651823 11.58860997 -0.94215473 8.79344419 -0.5625 5.25 C-0.46066406 4.26515625 -0.35882812 3.2803125 -0.25390625 2.265625 C-0.17011719 1.51796875 -0.08632813 0.7703125 0 0 Z " fill="#000000" transform="translate(699,184)"/>
<path d="M0 0 C2.26169766 3.68713736 2.63948566 7.539556 3.125 11.75 C3.21136719 12.44738281 3.29773438 13.14476563 3.38671875 13.86328125 C3.59771846 15.57472332 3.79975501 17.28726629 4 19 C3.34 19 2.68 19 2 19 C1.34 16.36 0.68 13.72 0 11 C-0.66 13.64 -1.32 16.28 -2 19 C-3.32963842 15.01108475 -2.38405007 11.81537164 -1.5625 7.8125 C-1.41490234 7.06291016 -1.26730469 6.31332031 -1.11523438 5.54101562 C-0.75027209 3.69265826 -0.37602589 1.84613839 0 0 Z " fill="#A515C1" transform="translate(299,79)"/>
<path d="M0 0 C0 0.66 0 1.32 0 2 C-7.33763707 3.17402193 -14.58165418 3.09377123 -22 3 C-17.17360327 -1.82639673 -6.46960725 -0.1238861 0 0 Z " fill="#090908" transform="translate(366,37)"/>
<path d="M0 0 C2.0625 0.4375 2.0625 0.4375 4 1 C4 3.31 4 5.62 4 8 C2.0625 8.5625 2.0625 8.5625 0 9 C-1 8 -1 8 -1.125 4.5 C-1 1 -1 1 0 0 Z " fill="#E7E2D9" transform="translate(659,187)"/>
<path d="M0 0 C1.32 0 2.64 0 4 0 C4 2.64 4 5.28 4 8 C2.68 8.33 1.36 8.66 0 9 C-1.125 2.25 -1.125 2.25 0 0 Z " fill="#EAE5DC" transform="translate(594,187)"/>
<path d="M0 0 C0.66 0.66 1.32 1.32 2 2 C0.13032395 2.98929461 -1.74601378 3.96600469 -3.625 4.9375 C-5.19121094 5.75541016 -5.19121094 5.75541016 -6.7890625 6.58984375 C-9.98978523 7.99551395 -12.51643136 8.77571544 -16 9 C-18.375 8.0625 -18.375 8.0625 -20 7 C-19.2265625 6.82984375 -18.453125 6.6596875 -17.65625 6.484375 C-11.23453664 4.99021397 -5.75978843 3.2121897 0 0 Z " fill="#341F36" transform="translate(812,132)"/>
<path d="M0 0 C0.66 0 1.32 0 2 0 C1.67 1.98 1.34 3.96 1 6 C0.34 5.67 -0.32 5.34 -1 5 C-3.57931235 6.22674612 -6.01623517 7.64365752 -8.4921875 9.06640625 C-11 10 -11 10 -13.3203125 9.15234375 C-13.87460937 8.77207031 -14.42890625 8.39179688 -15 8 C-14.25234375 7.75765625 -13.5046875 7.5153125 -12.734375 7.265625 C-11.74953125 6.93046875 -10.7646875 6.5953125 -9.75 6.25 C-8.77546875 5.92515625 -7.8009375 5.6003125 -6.796875 5.265625 C-3.8156315 3.91657068 -2.22968471 2.34807505 0 0 Z " fill="#302330" transform="translate(533,131)"/>
<path d="M0 0 C0.54269531 0.34933594 1.08539063 0.69867188 1.64453125 1.05859375 C2.35996094 1.51363281 3.07539063 1.96867188 3.8125 2.4375 C4.87404297 3.11619141 4.87404297 3.11619141 5.95703125 3.80859375 C9.48387528 5.86535748 12.68442438 6.23283495 16.6875 6.5625 C17.68136719 6.64628906 18.67523437 6.73007813 19.69921875 6.81640625 C20.83810547 6.90728516 20.83810547 6.90728516 22 7 C22 7.33 22 7.66 22 8 C7.14154114 8.86052851 7.14154114 8.86052851 2.5625 5.6875 C0 3 0 3 0 0 Z " fill="#150717" transform="translate(498,133)"/>
<path d="M0 0 C0.33 0 0.66 0 1 0 C1 6.6 1 13.2 1 20 C-1.89560902 14.20878196 -2.6942281 8.68434867 -1.0625 2.375 C-0.711875 1.59125 -0.36125 0.8075 0 0 Z " fill="#2C1330" transform="translate(460,93)"/>
<path d="M0 0 C0.33 0 0.66 0 1 0 C1 1.65 1 3.3 1 5 C0.34 5 -0.32 5 -1 5 C-1 5.66 -1 6.32 -1 7 C-2.98 7.33 -4.96 7.66 -7 8 C-7.33 6.68 -7.66 5.36 -8 4 C-5.36 4 -2.72 4 0 4 C0 2.68 0 1.36 0 0 Z " fill="#CECAC2" transform="translate(529,188)"/>
<path d="M0 0 C0.66 0 1.32 0 2 0 C2.33 1.65 2.66 3.3 3 5 C2.01 5.33 1.02 5.66 0 6 C0 7.65 0 9.3 0 11 C-1.98 11.99 -1.98 11.99 -4 13 C-3.52140759 11.39566191 -3.04210442 9.79153584 -2.5625 8.1875 C-2.29566406 7.29417969 -2.02882813 6.40085937 -1.75390625 5.48046875 C-1.19612127 3.64526945 -0.60655425 1.81966274 0 0 Z " fill="#BA17D8" transform="translate(415,114)"/>
<path d="M0 0 C2.475 0.495 2.475 0.495 5 1 C4.67 2.65 4.34 4.3 4 6 C2.68 6 1.36 6 0 6 C0 4.02 0 2.04 0 0 Z " fill="#EBE7DD" transform="translate(331,183)"/>
<path d="M0 0 C0.99 0.33 1.98 0.66 3 1 C2.01 2.98 1.02 4.96 0 7 C1.32 7.33 2.64 7.66 4 8 C3 9 3 9 0.4375 9.0625 C-0.366875 9.041875 -1.17125 9.02125 -2 9 C-1.125 1.125 -1.125 1.125 0 0 Z " fill="#311B34" transform="translate(779,85)"/>
<path d="M0 0 C1.41623216 -0.05447047 2.83308191 -0.09300508 4.25 -0.125 C5.03890625 -0.14820313 5.8278125 -0.17140625 6.640625 -0.1953125 C9 0 9 0 13 2 C8.38 2.33 3.76 2.66 -1 3 C-0.67 2.01 -0.34 1.02 0 0 Z " fill="#242322" transform="translate(572,51)"/>
<path d="M0 0 C0 5.94 0 11.88 0 18 C-0.33 18 -0.66 18 -1 18 C-1.33 13.05 -1.66 8.1 -2 3 C-2.99 2.67 -3.98 2.34 -5 2 C-1.125 0 -1.125 0 0 0 Z " fill="#200E22" transform="translate(602,48)"/>
<path d="M0 0 C2.97 0 5.94 0 9 0 C7.8125 2 7.8125 2 6 4 C3.3125 4.25 3.3125 4.25 1 4 C0.67 2.68 0.34 1.36 0 0 Z " fill="#CECAC2" transform="translate(761,192)"/>
<path d="M0 0 C2.97 0 5.94 0 9 0 C9 0.99 9 1.98 9 3 C6.03 3 3.06 3 0 3 C0 2.01 0 1.02 0 0 Z " fill="#151514" transform="translate(719,189)"/>
<path d="M0 0 C4.290819 1.07270475 8.07762195 2.9937694 11.0625 6.25 C11.371875 6.8275 11.68125 7.405 12 8 C9 8 9 8 6.75 6.125 C3.45727115 3.58061861 1.01188089 2.94397197 -3 2 C-2.01 1.34 -1.02 0.68 0 0 Z " fill="#353432" transform="translate(396,64)"/>
<path d="M0 0 C0 0.66 0 1.32 0 2 C-1.5747294 2.72726052 -3.16024279 3.43120422 -4.75 4.125 C-5.63171875 4.51945313 -6.5134375 4.91390625 -7.421875 5.3203125 C-10 6 -10 6 -12.328125 5.1171875 C-12.87984375 4.74851563 -13.4315625 4.37984375 -14 4 C-13.30132813 3.79503906 -12.60265625 3.59007812 -11.8828125 3.37890625 C-10.97273437 3.10949219 -10.06265625 2.84007812 -9.125 2.5625 C-8.22007812 2.29566406 -7.31515625 2.02882812 -6.3828125 1.75390625 C-0.83937824 0 -0.83937824 0 0 0 Z " fill="#271928" transform="translate(618,135)"/>
<path d="M0 0 C0.33 0 0.66 0 1 0 C0.88512252 1.58409994 0.75765492 3.16728963 0.625 4.75 C0.55539062 5.63171875 0.48578125 6.5134375 0.4140625 7.421875 C0.00149945 9.99066382 -0.71160957 11.75841015 -2 14 C-2.66 13.67 -3.32 13.34 -4 13 C-3.52140759 11.39566191 -3.04210442 9.79153584 -2.5625 8.1875 C-2.29566406 7.29417969 -2.02882813 6.40085937 -1.75390625 5.48046875 C-1.19612127 3.64526945 -0.60655425 1.81966274 0 0 Z " fill="#BB18DA" transform="translate(491,112)"/>
<path d="M0 0 C0.99 0 1.98 0 3 0 C3.17700355 4.60209225 3.10814567 6.78370866 1 11 C0.67 7.37 0.34 3.74 0 0 Z " fill="#2F2E2D" transform="translate(688,49)"/>
<path d="M0 0 C2.31 0 4.62 0 7 0 C6.01 0.495 6.01 0.495 5 1 C5 1.66 5 2.32 5 3 C3.02 3 1.04 3 -1 3 C-0.67 2.01 -0.34 1.02 0 0 Z " fill="#1C1B1A" transform="translate(639,184)"/>
<path d="M0 0 C0.33 0 0.66 0 1 0 C1.99 3.3 2.98 6.6 4 10 C3.34 10.66 2.68 11.32 2 12 C-0.60018816 8.09971775 -0.15085514 4.52565431 0 0 Z " fill="#322432" transform="translate(495,123)"/>
<path d="M0 0 C0.66 0 1.32 0 2 0 C0.80100302 3.0831351 -0.47700477 6.06279492 -2 9 C-2.6875 7.3125 -2.6875 7.3125 -3 5 C-1.6875 2.25 -1.6875 2.25 0 0 Z " fill="#171017" transform="translate(450,86)"/>
<path d="M0 0 C1.98567708 0.5859375 3.97135417 1.171875 5.95703125 1.7578125 C5.62703125 2.4178125 5.29703125 3.0778125 4.95703125 3.7578125 C1.65703125 3.0978125 -1.64296875 2.4378125 -5.04296875 1.7578125 C-2.04296875 -0.2421875 -2.04296875 -0.2421875 0 0 Z " fill="#383735" transform="translate(795.04296875,64.2421875)"/>
<path d="M0 0 C2.475 0.495 2.475 0.495 5 1 C4.67 1.99 4.34 2.98 4 4 C2.68 3.67 1.36 3.34 0 3 C0 2.01 0 1.02 0 0 Z " fill="#262524" transform="translate(616,195)"/>
<path d="M0 0 C2.1640625 0.0234375 2.1640625 0.0234375 4.625 0.375 C5.85089844 0.54128906 5.85089844 0.54128906 7.1015625 0.7109375 C7.72804688 0.80632812 8.35453125 0.90171875 9 1 C5.01647791 3.30903272 2.49885947 2.86516528 -2 2 C-1.34 1.34 -0.68 0.68 0 0 Z " fill="#3E2940" transform="translate(772,138)"/>
<path d="M0 0 C0.66 0 1.32 0 2 0 C1.67 1.98 1.34 3.96 1 6 C-0.32 5.34 -1.64 4.68 -3 4 C-1.625 2 -1.625 2 0 0 Z " fill="#3B293C" transform="translate(533,131)"/>
<path d="M0 0 C1.42944945 2.35438733 2.08661261 3.48032433 1.625 6.25 C1.41875 6.8275 1.2125 7.405 1 8 C0.67 7.01 0.34 6.02 0 5 C-0.66 5 -1.32 5 -2 5 C-2 4.01 -2 3.02 -2 2 C-1.34 2 -0.68 2 0 2 C0 1.34 0 0.68 0 0 Z " fill="#442249" transform="translate(417,109)"/>
</svg>
